<svg width="250" height="250" viewBox="0 0 250 250" fill="none" xmlns="http://www.w3.org/2000/svg">
<rect width="250" height="250" rx="23" fill="url(#paint0_linear)"/>
<path d="M105.12 124.44C110 125.8 113.84 128.28 116.64 131.88C119.44 135.4 120.84 139.88 120.84 145.32C120.84 152.6 118.08 158.2 112.56 162.12C107.12 166.04 99.16 168 88.68 168H48.6V84H86.28C95.88 84 103.28 85.92 108.48 89.76C113.76 93.6 116.4 98.92 116.4 105.72C116.4 110.12 115.36 113.92 113.28 117.12C111.28 120.32 108.56 122.76 105.12 124.44ZM60.6 93.72V120.6H85.2C91.36 120.6 96.08 119.48 99.36 117.24C102.72 114.92 104.4 111.56 104.4 107.16C104.4 102.76 102.72 99.44 99.36 97.2C96.08 94.88 91.36 93.72 85.2 93.72H60.6ZM88.2 158.28C95 158.28 100.12 157.16 103.56 154.92C107 152.68 108.72 149.16 108.72 144.36C108.72 135 101.88 130.32 88.2 130.32H60.6V158.28H88.2ZM176.98 168.96C168.58 168.96 160.98 167.12 154.18 163.44C147.46 159.68 142.18 154.56 138.34 148.08C134.5 141.52 132.58 134.16 132.58 126C132.58 117.84 134.5 110.52 138.34 104.04C142.18 97.48 147.5 92.36 154.3 88.68C161.1 84.92 168.7 83.04 177.1 83.04C183.66 83.04 189.66 84.16 195.1 86.4C200.54 88.56 205.18 91.8 209.02 96.12L201.22 103.68C194.9 97.04 187.02 93.72 177.58 93.72C171.34 93.72 165.7 95.12 160.66 97.92C155.62 100.72 151.66 104.6 148.78 109.56C145.98 114.44 144.58 119.92 144.58 126C144.58 132.08 145.98 137.6 148.78 142.56C151.66 147.44 155.62 151.28 160.66 154.08C165.7 156.88 171.34 158.28 177.58 158.28C186.94 158.28 194.82 154.92 201.22 148.2L209.02 155.76C205.18 160.08 200.5 163.36 194.98 165.6C189.54 167.84 183.54 168.96 176.98 168.96Z" fill="#654B4B"/>
<defs>
<linearGradient id="paint0_linear" x1="125" y1="544" x2="125" y2="-38" gradientUnits="userSpaceOnUse">
<stop stop-color="#ECD0CF"/>
<stop offset="1" stop-color="#F4EEF0"/>
</linearGradient>
</defs>
</svg>
