<svg width="38" height="23" fill="none" xmlns="http://www.w3.org/2000/svg"><path d="M13.976 6.988A6.996 6.996 0 006.988 0 6.996 6.996 0 000 6.988c0 1.13.27 2.197.747 3.142L6.988 23l6.242-12.872a6.944 6.944 0 00.746-3.14zm-6.988 3.867a3.872 3.872 0 01-3.867-3.867 3.872 3.872 0 013.867-3.867 3.872 3.872 0 013.867 3.867 3.872 3.872 0 01-3.867 3.867zM32.814.198a4.25 4.25 0 00-4.244 4.244c0 .686.163 1.334.453 1.908l3.791 7.817 3.791-7.818a4.22 4.22 0 00.453-1.907A4.25 4.25 0 0032.814.198zm0 6.593a2.352 2.352 0 01-2.349-2.349 2.352 2.352 0 012.35-2.349 2.351 2.351 0 012.348 2.35 2.351 2.351 0 01-2.349 2.348zm-14.265 5.235l-.725-.013-.364.754-3.112 6.45-4.514-.098L7.952 23l7.507-.164 1.328-.03.344-1.108 2.281-7.347 12.569-.22-.915-1.886-12.517-.22z" fill="#3C4D57"/></svg>