<svg width="14" height="12" fill="none" xmlns="http://www.w3.org/2000/svg"><path d="M7 .718c-3.866 0-7 3.164-7 7.067C0 9.9.913 11.28.913 11.28h12.171S14 9.774 14 7.786C14 3.882 10.866.718 7 .718zm5.57 9.703l-11.118-.005S.859 9.294.859 7.763c0-3.421 2.76-6.194 6.165-6.194 3.404 0 6.164 2.773 6.164 6.194 0 1.548-.617 2.658-.617 2.658z" fill="#BE1C2D"/><path d="M8.978 2.595h-.087L7.023 6.252 5.09 2.563 2.44 9.23h-.684v.536h3.75V9.23h-.744l.744-2.083 1.517 2.619 1.459-2.619.743 2.083h-.743v.536h3.72V9.23h-.645L8.978 2.595z" fill="#BE1C2D"/></svg>