<svg width="47" height="68" fill="none" xmlns="http://www.w3.org/2000/svg"><path d="M11.364 35.133l-2.67-2.914L32.01 10.846l2.671 2.912-23.316 21.375z" fill="#BE1C2D"/><path d="M35.217 18.26l-7.645-8.338L38.396 0l7.644 8.338-10.823 9.922z" fill="#3C4D57"/><path d="M34.714 3.376l7.644 8.339 1.64-1.505-7.644-8.34-1.64 1.506zm2.147 7.418a1.264 1.264 0 11-1.707-1.862 1.264 1.264 0 011.707 1.862z" fill="#DAE0ED"/><path d="M13.168 37.412a4.874 4.874 0 11-6.588-7.184 4.874 4.874 0 016.588 7.184z" fill="#BE1C2D"/><path d="M11.46 35.55a2.348 2.348 0 01-3.173-3.461 2.347 2.347 0 013.173 3.46z" fill="#DAE0ED"/><path d="M35.32 35.133l2.67-2.914-23.316-21.373-2.671 2.912 23.316 21.375z" fill="#BE1C2D"/><path d="M11.467 18.26l7.645-8.338L8.288 0 .644 8.338l10.823 9.922z" fill="#3C4D57"/><path d="M11.97 3.376l-7.644 8.339-1.64-1.505 7.644-8.34 1.64 1.506zm-2.147 7.418a1.264 1.264 0 101.708-1.861 1.264 1.264 0 00-1.708 1.861z" fill="#DAE0ED"/><path d="M33.517 37.412a4.874 4.874 0 106.588-7.185 4.874 4.874 0 00-6.588 7.185z" fill="#BE1C2D"/><path d="M35.225 35.55a2.347 2.347 0 103.17-3.46 2.347 2.347 0 00-3.17 3.46z" fill="#DAE0ED"/><path d="M23.358 25.356a3.358 3.358 0 11.001-6.716 3.358 3.358 0 01-.001 6.716zm7.672-3.358c0-.652-.082-1.288-.236-1.895l1.93-1.115-2.109-3.655-1.95 1.127a7.649 7.649 0 00-3.198-1.838v-2.278h-4.22v2.278a7.645 7.645 0 00-3.184 1.826l-1.98-1.142-2.11 3.655 1.951 1.126a7.68 7.68 0 00-.027 3.707l-1.94 1.12 2.111 3.654 1.908-1.101a7.657 7.657 0 003.24 1.9v2.192h4.22v-2.174a7.638 7.638 0 003.267-1.884l1.896 1.095 2.11-3.654-1.904-1.1a7.69 7.69 0 00.225-1.844z" fill="#3C4D57"/><path d="M29.128 22.016a5.723 5.723 0 10-11.447-.002 5.723 5.723 0 0011.447.002z" fill="#DAE0ED"/><path d="M26.521 22.016a3.117 3.117 0 10-6.233 0 3.117 3.117 0 006.233 0z" fill="#BE1C2D"/><path d="M5.619 46.015l1.665 5.093 1.666-5.093h3.077V54h-2.33v-1.234l.233-4.27L8.032 54H6.537L4.64 48.503l.24 4.263V54H2.555v-7.985H5.62zm14.976 4.133c0 .781-.162 1.476-.487 2.084a3.348 3.348 0 01-1.357 1.391c-.585.325-1.245.487-1.98.487-.75 0-1.417-.16-2.002-.48a3.348 3.348 0 01-1.364-1.385c-.324-.607-.487-1.304-.487-2.09v-.281c0-.782.158-1.474.473-2.077a3.348 3.348 0 011.35-1.398c.59-.33 1.262-.494 2.016-.494.735 0 1.396.165 1.98.494a3.368 3.368 0 011.358 1.378c.324.589.49 1.265.5 2.028v.343zm-2.33-.281c0-.704-.133-1.245-.398-1.624-.265-.384-.635-.576-1.11-.576-1.006 0-1.508.747-1.508 2.241v.24c0 .685.125 1.225.377 1.618.251.393.633.589 1.144.589.457 0 .818-.192 1.083-.576.265-.384.402-.909.412-1.576v-.336zm10.068-2.07H25.79V54h-2.323v-6.203h-2.468v-1.782h7.334v1.782zm8.204 2.351c0 .781-.162 1.476-.486 2.084a3.348 3.348 0 01-1.357 1.391c-.585.325-1.245.487-1.981.487-.75 0-1.417-.16-2.002-.48a3.348 3.348 0 01-1.363-1.385c-.325-.607-.487-1.304-.487-2.09v-.281c0-.782.157-1.474.473-2.077a3.349 3.349 0 011.35-1.398c.59-.33 1.261-.494 2.015-.494.736 0 1.396.165 1.98.494a3.368 3.368 0 011.358 1.378c.324.589.491 1.265.5 2.028v.343zm-2.33-.281c0-.704-.133-1.245-.398-1.624-.265-.384-.635-.576-1.11-.576-1.005 0-1.508.747-1.508 2.241v.24c0 .685.126 1.225.377 1.618.252.393.633.589 1.145.589.457 0 .818-.192 1.083-.576.265-.384.402-.909.411-1.576v-.336zm6.45 1.487h-.912V54h-2.317v-7.985h3.53c1.037 0 1.849.21 2.433.63.585.416.878 1 .878 1.748 0 .58-.112 1.056-.336 1.426-.224.37-.599.679-1.124.925l1.734 3.167V54h-2.495l-1.391-2.646zm-.912-1.782h1.213c.667 0 1-.301 1-.904 0-.58-.355-.87-1.068-.87h-1.145v1.774z" fill="#3C4D57"/><path d="M10.547 63.54a.594.594 0 00-.248-.502c-.165-.127-.491-.25-.978-.372-.484-.12-.866-.26-1.146-.415-.28-.156-.486-.337-.62-.544a1.4 1.4 0 01-.196-.754c0-.465.196-.845.587-1.14.392-.3.898-.45 1.518-.45.668 0 1.204.16 1.608.478.405.318.607.732.607 1.24h-1.16a.721.721 0 00-.287-.605c-.19-.15-.447-.225-.768-.225-.302 0-.54.062-.716.187a.564.564 0 00-.262.486c0 .185.089.337.267.458.181.121.5.238.954.349.704.172 1.208.4 1.513.682.306.284.458.651.458 1.103 0 .486-.197.868-.591 1.145-.395.277-.917.415-1.566.415-.439 0-.841-.073-1.207-.22a1.942 1.942 0 01-.845-.63c-.2-.27-.3-.585-.3-.944h1.164c0 .61.407.916 1.222.916.308 0 .55-.059.725-.176a.55.55 0 00.267-.482zm5.58-.945H13.73v1.48h2.806V65H12.57v-5.56h3.952v.935H13.73v1.289h2.396v.93zm3.402.377h-1.064V65h-1.16v-5.56h2.177c.693 0 1.23.146 1.613.44.382.289.572.704.572 1.245 0 .747-.358 1.266-1.074 1.556l1.308 2.267V65h-1.24l-1.132-2.028zm-1.064-.926h1.017c.343 0 .6-.075.773-.224a.766.766 0 00.257-.602c0-.258-.084-.463-.253-.615-.165-.153-.424-.23-.777-.23h-1.017v1.67zm6.17 1.465l.091.367.086-.358 1.384-4.08h1.227L25.313 65H24.14l-2.105-5.56h1.226l1.375 4.071zM29.26 65h-1.155v-5.56h1.155V65zm5.837-1.852c-.054.608-.293 1.082-.716 1.422-.42.338-.975.506-1.665.506-.751 0-1.346-.238-1.785-.715-.44-.478-.659-1.141-.659-1.99v-.325c0-.538.1-1.009.3-1.413.201-.407.49-.72.865-.94.375-.22.811-.33 1.307-.33.681 0 1.228.174 1.642.52.414.348.652.83.716 1.447h-1.16c-.038-.356-.157-.617-.358-.783-.197-.168-.477-.253-.84-.253-.875 0-1.312.589-1.312 1.766v.344c0 .588.107 1.027.32 1.317.213.286.534.43.964.43.381 0 .671-.078.868-.234.198-.156.317-.412.358-.769h1.155zm4.415-.553h-2.396v1.48h2.806V65h-3.966v-5.56h3.952v.935h-2.792v1.289h2.396v.93z" fill="#BE1C2D"/></svg>