<svg width="53" height="53" fill="none" xmlns="http://www.w3.org/2000/svg"><path d="M47.32 3.622v24.122h-4.71v-3.986c.846-1.223 1.3-2.754 1.3-4.443 0-2.693-1.121-5.009-3.246-6.226-.607-4.93-3.327-8.547-6.691-8.547H19.027c-3.366 0-6.086 3.616-6.694 8.547-2.125 1.216-3.247 3.533-3.247 6.226 0 1.689.46 3.22 1.302 4.443v3.986h-4.71V3.622H0v45.756h5.68V30.581h16.13v-2.837h-4.32v-1.288h18.022v1.288h-4.323v2.837h16.133v18.797H53V3.622h-5.68zM15.103 21.634a2.32 2.32 0 11.004-4.641 2.32 2.32 0 01-.004 4.641zm.832-9.462c-.464 0-.886.055-1.302.119.668-3.238 2.41-5.622 4.398-5.622h14.947c1.988 0 3.724 2.383 4.392 5.622-.217-.035-.457-.046-.69-.064 0-.02.005-.037.005-.056a3.714 3.714 0 00-3.712-3.712 3.714 3.714 0 00-3.71 3.712l-14.328.001zm17.303 9.206H19.756a.71.71 0 010-1.42h13.482c.396 0 .71.318.71.71a.707.707 0 01-.71.71zm0-2.031H19.756a.71.71 0 010-1.42h13.482c.396 0 .71.317.71.71a.707.707 0 01-.71.71zm-1.551-7.175a2.294 2.294 0 012.291-2.29 2.294 2.294 0 012.292 2.29h-4.583zm6.21 9.462a2.318 2.318 0 01-2.322-2.319 2.32 2.32 0 114.64 0 2.314 2.314 0 01-2.318 2.32z" fill="url(#paint0_linear)"/><defs><linearGradient id="paint0_linear" x1="0" y1="4" x2="53" y2="49" gradientUnits="userSpaceOnUse"><stop stop-color="#DAE0ED"/><stop offset="1" stop-color="#fff"/></linearGradient></defs></svg>