<svg width="59" height="44" fill="none" xmlns="http://www.w3.org/2000/svg"><path d="M58.114 19.364l-5.448-9.115a1.79 1.79 0 00-1.542-.884H36.458V2.073c0-1.007-.734-1.823-1.74-1.823H1.904C.898.25 0 1.066 0 2.073v34.635c0 1.007.898 1.823 1.905 1.823h7.55C10.271 41.667 13.101 44 16.488 44c3.388 0 6.218-2.333 7.033-5.469h15.101C39.437 41.667 42.267 44 45.655 44c3.387 0 6.217-2.333 7.033-5.469h3.904c1.007 0 1.741-.816 1.741-1.823V20.302c0-.33-.049-.654-.219-.938zM3.646 3.896h29.166v30.989h-9.291c-.815-3.135-3.645-5.468-7.033-5.468-3.387 0-6.217 2.333-7.033 5.468h-5.81V3.895zm12.842 36.458a3.65 3.65 0 01-3.646-3.646 3.65 3.65 0 013.646-3.645 3.65 3.65 0 013.646 3.645 3.65 3.65 0 01-3.646 3.646zm29.167 0a3.65 3.65 0 01-3.646-3.646 3.65 3.65 0 013.646-3.645 3.65 3.65 0 013.646 3.645 3.65 3.65 0 01-3.646 3.646zm9.032-5.469h-2c-.815-3.135-3.645-5.468-7.032-5.468-3.388 0-6.218 2.333-7.033 5.468h-2.164V13.01h13.633l4.596 7.797v14.078z" fill="url(#paint0_linear)"/><defs><linearGradient id="paint0_linear" x1="29.167" y1=".25" x2="29.167" y2="44" gradientUnits="userSpaceOnUse"><stop stop-color="#DAE0ED"/><stop offset="1" stop-color="#fff"/></linearGradient></defs></svg>