<svg width="21" height="22" fill="none" xmlns="http://www.w3.org/2000/svg"><path d="M20.785 12.736c.684-5.52-.328-9.005-2.153-10.58l.001-.002C15.687-.537 5.739-.936 2.215 2.275.632 3.845.075 6.151.014 9.005c-.062 2.855-.134 8.202 5.06 9.653h.004l-.004 2.215s-.036.898.562 1.078c.683.213.993-.204 3.118-2.64 3.555.296 6.285-.382 6.595-.48.718-.232 4.78-.747 5.436-6.095zm-11.68 5.016s-2.25 2.692-2.95 3.39c-.229.228-.48.207-.476-.244 0-.296.017-3.678.017-3.678-4.403-1.21-4.144-5.764-4.096-8.146.048-2.383.502-4.335 1.842-5.65C6.534.645 15.256 1.266 17.478 3.27c2.717 2.31 1.75 8.839 1.755 9.061-.558 4.464-3.85 4.747-4.455 4.94-.258.083-2.659.675-5.673.482z" fill="#333"/><path d="M10.349 3.947c-.368 0-.368.55 0 .555 2.851.02 5.2 1.927 5.225 5.425 0 .37.563.365.559-.005h-.001c-.03-3.768-2.595-5.954-5.783-5.975z" fill="#333"/><path d="M14.097 9.348c-.009.364.553.382.558.013.047-2.078-1.288-3.79-3.798-3.97-.367-.026-.406.528-.039.554 2.176.158 3.323 1.583 3.279 3.403zM13.5 11.71c-.47-.261-.951-.098-1.15.16l-.415.515c-.21.262-.605.227-.605.227-2.877-.73-3.646-3.619-3.646-3.619s-.036-.39.228-.6l.519-.413c.26-.197.424-.674.16-1.142-.707-1.224-1.181-1.646-1.423-1.97-.254-.306-.636-.374-1.033-.168h-.008c-.826.463-1.73 1.33-1.44 2.223.493.942 1.4 3.943 4.29 6.21 1.358 1.073 3.508 2.172 4.42 2.426l.01.013c.898.288 1.773-.614 2.24-1.43v-.006c.207-.395.138-.768-.165-1.013-.536-.502-1.346-1.056-1.981-1.412z" fill="#333"/><path d="M11.252 7.434c.918.051 1.362.511 1.41 1.455.017.37.576.344.558-.025-.06-1.233-.73-1.92-1.937-1.984-.368-.021-.402.533-.03.554z" fill="#333"/></svg>