<svg width="22" height="22" fill="none" xmlns="http://www.w3.org/2000/svg"><path d="M11 0C4.935 0 0 4.935 0 11c0 2.113.6 4.166 1.737 5.935l.273.425-1.07 3.8 3.932-1.012.405.248A10.978 10.978 0 0011 22c6.066 0 11-4.935 11-11S17.066 0 11 0zm6.745 14.38l-.137.642a2.774 2.774 0 01-1.207 1.761c-.787.504-1.807.75-3.103.384C9.275 16.03 7 13.367 5.78 11.702c-1.221-1.665-1.693-3.33-1.388-4.689.205-.911.871-1.61 1.288-1.973a1.04 1.04 0 01.74-.252l.859.046c.169.01.318.114.385.27l1.252 2.93a.445.445 0 01-.072.466l-1.09 1.26a.33.33 0 00-.042.369c1.436 2.765 4.052 3.86 4.833 4.135.133.047.28.003.367-.11l1.14-1.478a.445.445 0 01.54-.132l2.904 1.339c.19.087.293.294.25.498z" fill="#333"/></svg>