<svg width="50" height="50" fill="none" xmlns="http://www.w3.org/2000/svg"><g clip-path="url(#clip0)"><path d="M46.14 30.475c-.59 0-1.068.478-1.068 1.069v13.264h-8.82V26.372h9.888a1.068 1.068 0 100-2.136H35.184c-.59 0-1.069.478-1.069 1.068v.541l-6.803-6.803a3.638 3.638 0 00-3.842-.833 11.204 11.204 0 003.475-8.143c0-4.143-2.262-7.95-5.903-9.936a1.069 1.069 0 00-1.58.938v9.51h-7.655v-9.51a1.069 1.069 0 00-1.58-.938 11.313 11.313 0 00-5.902 9.936 11.22 11.22 0 004.03 8.643v2.783h-1.93a3.638 3.638 0 00-3.633 3.634v.052c0 1 .406 1.907 1.062 2.565a3.622 3.622 0 00-1.062 2.565v.052c0 1 .406 1.907 1.062 2.565a3.622 3.622 0 00-1.062 2.565v.052c0 1 .406 1.908 1.062 2.565a3.622 3.622 0 00-1.062 2.566v.051a3.638 3.638 0 003.633 3.634h2.103A7.23 7.23 0 0015.573 50h.124c3.439 0 6.321-2.418 7.042-5.642h8.529a1.068 1.068 0 100-2.137h-8.354v-8.816a1.068 1.068 0 10-2.137 0v9.378a5.086 5.086 0 01-5.08 5.08h-.124a5.091 5.091 0 01-4.832-3.505h1.682a3.638 3.638 0 003.634-3.634v-.051c0-1-.407-1.908-1.063-2.566a3.622 3.622 0 001.063-2.565v-.052c0-1-.407-1.907-1.063-2.565a3.622 3.622 0 001.063-2.565v-.052c0-1-.407-1.907-1.063-2.565a3.622 3.622 0 001.063-2.565v-.052a3.638 3.638 0 00-3.634-3.634h-1.93v-3.296c0-.333-.155-.646-.42-.848-2.295-1.757-3.612-4.41-3.612-7.282a9.173 9.173 0 013.21-6.97v8.55c0 .591.478 1.07 1.068 1.07h9.792c.59 0 1.068-.479 1.068-1.07v-8.55a9.174 9.174 0 013.21 6.97c0 2.871-1.317 5.525-3.612 7.282-.264.202-.42.515-.42.848v2.241l-2.845 2.846a3.61 3.61 0 00-1.064 2.57c0 .97.378 1.882 1.064 2.568l.037.037a3.622 3.622 0 002.57 1.063c.93 0 1.86-.355 2.568-1.063l2.127-2.127a1.068 1.068 0 10-1.51-1.51l-2.128 2.126a1.498 1.498 0 01-2.116 0l-.037-.037a1.487 1.487 0 01-.438-1.058c0-.4.155-.776.438-1.058l4.241-4.241a1.498 1.498 0 012.115-.002l.002.002 8.314 8.314v17.01c0 .59.478 1.068 1.069 1.068H46.14c.59 0 1.068-.478 1.068-1.069V31.544c0-.59-.478-1.068-1.068-1.068zm-32.22-.167v.052a1.5 1.5 0 01-1.497 1.497H6.425a1.499 1.499 0 01-1.497-1.497v-.052a1.5 1.5 0 011.497-1.497h5.998a1.5 1.5 0 011.497 1.497zm0 5.182v.052a1.5 1.5 0 01-1.497 1.497H6.425a1.499 1.499 0 01-1.497-1.497v-.052a1.5 1.5 0 011.497-1.497h5.998a1.5 1.5 0 011.497 1.497zm0 5.234c0 .826-.672 1.497-1.497 1.497H6.425a1.499 1.499 0 01-1.497-1.497v-.051c0-.826.672-1.497 1.497-1.497h5.998c.825 0 1.497.671 1.497 1.496v.052zm0-15.598v.051c0 .826-.672 1.497-1.497 1.497H6.425a1.499 1.499 0 01-1.497-1.497v-.051c0-.826.672-1.497 1.497-1.497h5.998c.825 0 1.497.671 1.497 1.497z" fill="url(#paint0_linear)"/></g><defs><linearGradient id="paint0_linear" x1="3" y1="0" x2="47" y2="50" gradientUnits="userSpaceOnUse"><stop stop-color="#DAE0ED"/><stop offset="1" stop-color="#fff"/></linearGradient><clipPath id="clip0"><path fill="#fff" d="M0 0h50v50H0z"/></clipPath></defs></svg>