<svg width="232" height="163" fill="none" xmlns="http://www.w3.org/2000/svg"><path d="M28.484 44.969l2.57-1.547-2.076-3.45-2.711 2.976 2.217 2.02zM45.36 73l-2.57 1.547.875 1.453h1.695v-3zm15.657 0v3h5.415l-2.872-4.591L61.016 73zM37.203 34.937l-2.387-1.816-1.256 1.65 1.1 1.758 2.543-1.592zM60.172 4.75l2.387 1.817 3.665-4.817h-6.052v3zm-16.125 0v-3h-1.532l-.898 1.24 2.43 1.76zM27.453 27.672l2.41 1.787.01-.014.01-.014-2.43-1.76zm-6.187 8.344h-3v9.081l5.41-7.294-2.41-1.787zm0-31.266h3v-3h-3v3zm-13.22 0v-3h-3v3h3zm0 68.25h-3v3h3v-3zm13.22 0v3h3v-3h-3zm0-20.11l-2.218-2.02-.782.859v1.162h3zm4.648-6.374L42.79 74.547l5.14-3.094L31.056 43.42l-5.14 3.095zM45.36 76h15.657v-6H45.359v6zm18.2-4.591L39.746 33.346 34.66 36.53l23.812 38.06 5.087-3.182zM39.59 36.754L62.559 6.567l-4.775-3.634-22.968 30.188 4.775 3.633zM60.17 1.75H44.048v6h16.125v-6zM41.618 2.99L25.023 25.914l4.86 3.518L46.477 6.51l-4.86-3.518zM25.043 25.886l-6.187 8.344 4.82 3.574 6.187-8.344-4.82-3.574zm-.777 10.13V4.75h-6v31.266h6zm-3-34.265H8.046v6h13.22v-6zm-16.22 3V73h6V4.75h-6zm3 71.25h13.22v-6H8.046v6zm16.22-3V52.89h-6V73h6zm-.783-18.089l7.219-7.922-4.435-4.04-7.219 7.921 4.435 4.041zM111.266 4.75l3-.003-.003-2.997h-2.997v3zm-13.079 0v-3h-2.996l-.004 2.997 3 .003zm-.046 45.234l2.999.043.001-.02v-.02l-3-.003zm-2.672 10.078L93.1 58.221l-.02.026-.02.026 2.408 1.79zm-3.094 2.485l1.199 2.75.016-.007.016-.007-1.231-2.736zm-8.11.047l-1.28 2.712.03.015.032.014 1.219-2.741zm-2.859-2.344l-2.4 1.8.005.006.004.006 2.391-1.812zm-1.922-4.266l-2.92.69.007.026.006.024 2.907-.74zm-.656-6l-3 .003v.039l3-.042zM78.781 4.75l3-.003-.003-2.997h-2.997v3zm-13.172 0v-3h-2.996l-.004 2.997 3 .003zm-.046 45.234l-3-.003v.003h3zm1.593 10.22l-2.828 1 .007.018.006.018 2.815-1.037zm11.672 12.14l-1.081 2.798.01.004 1.071-2.802zm19.078 0l-1.04-2.814-.01.004 1.05 2.81zm7.313-4.688l2.153 2.089h.001l-2.154-2.089zm4.5-7.5l-2.825-1.01-.005.013-.004.013 2.834.984zm1.593-10.172h3v-.003l-3 .003zm-.046-48.234H98.187v6h13.079v-6zM95.187 4.747l-.046 45.234 6 .006.047-45.234-6-.006zm-.046 45.195c-.029 2.04-.244 3.746-.608 5.149l5.808 1.506c.512-1.973.766-4.174.799-6.57l-6-.085zm-.608 5.149c-.357 1.378-.858 2.39-1.432 3.13l4.736 3.683c1.175-1.51 1.987-3.31 2.504-5.307l-5.807-1.506zm-1.472 3.182a4.757 4.757 0 01-1.917 1.538l2.462 5.472a10.754 10.754 0 004.271-3.431l-4.816-3.578zm-1.885 1.524c-.773.337-1.758.547-3.02.547v6c1.926 0 3.753-.322 5.418-1.047l-2.398-5.5zm-3.02.547c-1.129 0-1.997-.192-2.672-.492l-2.437 5.483c1.576.7 3.3 1.009 5.11 1.009v-6zm-2.61-.463a4.652 4.652 0 01-1.749-1.443l-4.782 3.624a10.647 10.647 0 003.97 3.245l2.562-5.426zm-1.74-1.431c-.553-.738-1.05-1.774-1.414-3.206l-5.815 1.48c.51 2.006 1.295 3.814 2.43 5.326l4.8-3.6zm-1.402-3.156c-.344-1.454-.547-3.228-.576-5.35l-6 .081c.034 2.44.268 4.667.737 6.65l5.839-1.38zm-.576-5.313l-.047-45.234-6 .006.047 45.234 6-.006zM78.781 1.75H65.61v6h13.172v-6zM62.61 4.747l-.047 45.234 6 .006.047-45.234-6-.006zm-.047 45.237c0 4.088.57 7.843 1.766 11.22l5.656-2.002c-.928-2.622-1.421-5.68-1.421-9.218h-6zm1.78 11.256c1.22 3.315 2.961 6.186 5.254 8.551l4.308-4.176c-1.645-1.697-2.966-3.826-3.933-6.449l-5.63 2.074zm5.254 8.551c2.283 2.356 5.014 4.139 8.15 5.351l2.163-5.597c-2.362-.913-4.35-2.223-6.005-3.93l-4.308 4.176zm8.161 5.355c3.172 1.212 6.652 1.791 10.4 1.791v-6c-3.128 0-5.867-.482-8.258-1.396l-2.142 5.605zm10.4 1.791c3.943 0 7.559-.572 10.8-1.783l-2.1-5.62c-2.448.914-5.332 1.403-8.7 1.403v6zm10.79-1.78c3.266-1.207 6.092-3.006 8.425-5.412l-4.307-4.177c-1.667 1.719-3.716 3.044-6.199 3.962l2.08 5.628zm8.426-5.413c2.305-2.378 4.021-5.268 5.18-8.603l-5.668-1.97c-.904 2.603-2.188 4.713-3.82 6.397l4.308 4.176zm5.17-8.577c1.2-3.353 1.769-7.095 1.769-11.183h-6c0 3.538-.493 6.577-1.418 9.161l5.649 2.022zm1.769-11.186l-.046-45.234-6 .006.046 45.234 6-.006zM139.625 4.75l2.909-.734-.572-2.266h-2.337v3zm-16.359 0v-3h-3v3h3zm0 68.25h-3v3h3v-3zm12.093 0v3h3v-3h-3zm0-20.203h3v-.055l-3 .055zm-.562-30.656l2.887-.816-5.887.87 3-.054zm8.015 28.359l-2.886.816.617 2.184h2.269v-3zm6.516 0v3h2.227l.645-2.132-2.872-.868zm8.953-29.625l3 .053-5.871-.92 2.871.867zm-.562 31.922l-3-.053v.053h3zm0 20.203h-3v3h3v-3zm12.093 0v3h3v-3h-3zm0-68.25h3v-3h-3v3zm-16.359 0v-3h-2.26l-.623 2.172 2.883.828zm-7.359 25.64l-2.909.735 2.722 10.79 3.07-10.697-2.883-.827zm-6.469-28.64h-16.359v6h16.359v-6zm-19.359 3V73h6V4.75h-6zm3 71.25h12.093v-6h-12.093v6zm15.093-3V52.797h-6V73h6zm0-20.258l-.563-30.656-5.999.11.563 30.656 5.999-.11zm-6.449-29.785l8.016 28.359 5.773-1.632-8.015-28.36-5.774 1.633zM142.812 53.5h6.516v-6h-6.516v6zm9.388-2.132l8.953-29.625-5.743-1.736-8.954 29.625 5.744 1.736zm3.082-30.546l-.563 31.922 5.999.106.563-31.922-5.999-.106zm-.563 31.975V73h6V52.797h-6zm3 23.203h12.093v-6h-12.093v6zm15.093-3V4.75h-6V73h6zm-3-71.25h-16.359v6h16.359v-6zM150.57 3.922l-7.36 25.641 5.767 1.655 7.36-25.64-5.767-1.656zm-1.567 25.735l-6.469-25.64-5.818 1.467 6.469 25.64 5.818-1.467zm78.841-4.47l-2.939.602.003.016.003.016 2.933-.634zm-2.485-7.593l2.712-1.283-.01-.021-.01-.021-2.692 1.325zm-3.609-5.578l-2.326 1.895.011.013.01.012 2.305-1.92zm-4.828-4.313l-1.684 2.483.03.02.029.02 1.625-2.523zm-6.234-2.86l-.866 2.873.023.007.023.007.82-2.886zM190.109 7.61l-1.694-2.476-.009.007 1.703 2.47zm-4.828 4.5l-2.338-1.879-.011.013-.01.013 2.359 1.853zm-3.515 5.86l-2.737-1.23-.005.013-.006.012 2.748 1.205zm-2.297 7.453l-2.943-.582-.004.017-.003.016 2.95.549zm-.094 26.484l-2.956.511.003.018.003.017 2.95-.546zm2.016 7.032l-2.78 1.128.003.008.004.01 2.773-1.147zM185 65.266l-2.381 1.825.008.01.007.01L185 65.265zM189.875 70l-1.76 2.43.038.027.039.026L189.875 70zm20.484 3l-.785-2.895-.025.007-.025.007.835 2.881zm6-2.531l1.55 2.568.02-.012.02-.012-1.59-2.544zm9.282-10.875l2.712 1.28.015-.03.014-.032-2.741-1.218zm2.297-7.313l2.94.595.001-.006-2.941-.589zm-12.844-3.515l-2.979-.358-.003.03-.003.03 2.985.298zm-.75 4.312l-2.902-.76-.002.007 2.904.753zm-1.782 4.547l-2.619-1.462-.006.01-.006.011 2.631 1.441zm-2.671 3.281l-1.907-2.316-.02.016-.019.017 1.946 2.283zM199.672 62.5l-1.072 2.802.014.005.013.005 1.045-2.812zm-2.86-1.734l-2.044 2.195.026.024.025.023 1.993-2.242zm-2.39-3.282l-2.708 1.293.018.037.019.037 2.671-1.367zm-1.5-4.547l2.937-.61-.009-.042-.01-.042-2.918.694zm-.656-24.093l-2.986-.293-.003.03-.002.028 2.991.235zm.703-4.407l2.922.68v-.001l-2.922-.678zm1.687-4.593l-2.604-1.489-.014.024-.013.024 2.631 1.44zm2.719-3.282l-1.815-2.388-.047.036-.045.037 1.907 2.316zM200 15.204l-.895-2.863-.013.004-.013.004.921 2.855zm6.797.047l-.949 2.846.013.004.012.004.924-2.854zm2.859 1.453l1.866-2.35-.04-.03-.04-.03-1.786 2.41zm2.766 3.281l-2.594 1.508.008.014.008.013 2.578-1.535zm1.875 4.5l-2.891.803.001.004 2.89-.807zm.797 4.407l-2.986.292.003.033.004.032 2.979-.357zm16.64 15v-9.938h-6v9.938h6zm0-9.938c0-3.286-.315-6.421-.958-9.399l-5.865 1.267c.545 2.522.823 5.23.823 8.132h6zm-.951-9.367c-.606-2.962-1.506-5.725-2.712-8.275l-5.424 2.565c.982 2.076 1.739 4.375 2.258 6.913l5.878-1.203zm-2.732-8.317a30.984 30.984 0 00-3.996-6.174l-4.61 3.841a24.945 24.945 0 013.223 4.983l5.383-2.65zm-3.975-6.148a23.523 23.523 0 00-5.53-4.94l-3.249 5.044a17.504 17.504 0 014.127 3.686l4.652-3.79zm-5.471-4.901c-2.128-1.443-4.503-2.526-7.098-3.262l-1.639 5.772c2.03.576 3.812 1.4 5.37 2.456l3.367-4.966zm-7.052-3.249c-2.589-.78-5.336-1.159-8.225-1.159v6c2.361 0 4.52.31 6.494.904l1.731-5.745zm-8.225-1.16c-2.847 0-5.543.36-8.07 1.108l1.702 5.754c1.912-.566 4.028-.862 6.368-.862v-6zm-8.07 1.108c-2.497.739-4.785 1.806-6.843 3.213l3.388 4.952c1.505-1.03 3.217-1.837 5.157-2.411l-1.702-5.754zm-6.852 3.22a25.703 25.703 0 00-5.463 5.09l4.677 3.758a19.708 19.708 0 014.193-3.909l-3.407-4.94zm-5.484 5.116c-1.535 1.953-2.83 4.118-3.893 6.483l5.473 2.46c.875-1.948 1.923-3.69 3.138-5.236l-4.718-3.707zm-3.904 6.508c-1.096 2.5-1.923 5.196-2.492 8.076l5.886 1.164c.493-2.495 1.197-4.768 2.101-6.83l-5.495-2.41zm-2.499 8.11c-.536 2.884-.8 5.913-.8 9.08h6c0-2.834.236-5.493.699-7.983l-5.899-1.098zm-.8 9.08v9.937h6v-9.938h-6zm0 9.937c0 2.967.231 5.811.7 8.526l5.912-1.022c-.406-2.347-.612-4.847-.612-7.504h-6zm.706 8.562c.502 2.71 1.227 5.25 2.186 7.613l5.559-2.257c-.791-1.95-1.409-4.096-1.845-6.449l-5.9 1.093zm2.193 7.63c1.062 2.57 2.393 4.91 4.001 7.008l4.762-3.65c-1.267-1.653-2.342-3.53-3.218-5.65l-5.545 2.293zm4.016 7.027a27.074 27.074 0 005.481 5.32l3.52-4.86a21.088 21.088 0 01-4.269-4.149l-4.732 3.69zm5.558 5.373c2.105 1.428 4.426 2.522 6.947 3.292l1.753-5.738c-1.979-.605-3.752-1.448-5.334-2.52l-3.366 4.966zm6.947 3.292c2.568.785 5.32 1.162 8.236 1.162v-6c-2.397 0-4.551-.31-6.483-.9l-1.753 5.738zm8.236 1.162c2.751 0 5.363-.344 7.82-1.056l-1.671-5.762c-1.856.538-3.9.819-6.149.819v6zm7.77-1.042c2.437-.661 4.697-1.61 6.764-2.858l-3.1-5.137c-1.558.94-3.298 1.679-5.235 2.205l1.571 5.79zm6.804-2.882c2.279-1.425 4.3-3.2 6.059-5.311l-4.61-3.841a19.35 19.35 0 01-4.629 4.064l3.18 5.088zm6.059-5.311a31.861 31.861 0 004.345-6.827l-5.425-2.562a25.877 25.877 0 01-3.53 5.548l4.61 3.84zm4.374-6.89c1.096-2.466 1.925-5.115 2.496-7.936l-5.881-1.19c-.492 2.43-1.194 4.656-2.098 6.69l5.483 2.436zm2.497-7.942c.573-2.866.855-5.86.855-8.98h-6c0 2.757-.249 5.356-.738 7.803l5.883 1.177zm-18.504-19.01v10.03h6V33.86h-6zm0 10.03a37.98 37.98 0 01-.26 4.518l5.957.715a43.85 43.85 0 00.303-5.232h-6zm-.266 4.577a25.136 25.136 0 01-.667 3.851l5.804 1.52c.389-1.485.663-3.08.833-4.774l-5.97-.597zm-.669 3.858c-.382 1.472-.887 2.745-1.497 3.838l5.239 2.924c.89-1.594 1.572-3.353 2.066-5.256l-5.808-1.506zm-1.509 3.86c-.551 1.006-1.205 1.794-1.947 2.405l3.814 4.632c1.382-1.138 2.51-2.538 3.396-4.156l-5.263-2.882zm-1.986 2.438a5.866 5.866 0 01-1.934 1.086l1.946 5.676a11.867 11.867 0 003.879-2.195l-3.891-4.567zm-1.934 1.086c-.741.254-1.61.4-2.636.4v6c1.599 0 3.136-.228 4.582-.724l-1.946-5.676zm-2.636.4c-1.081 0-1.953-.16-2.659-.421l-2.089 5.624c1.482.55 3.079.797 4.748.797v-6zm-2.632-.411a6.224 6.224 0 01-1.937-1.175l-3.987 4.485a12.237 12.237 0 003.781 2.294l2.143-5.604zm-1.886-1.128c-.602-.56-1.202-1.353-1.764-2.452l-5.342 2.733c.813 1.589 1.806 2.983 3.017 4.11l4.089-4.391zm-1.728-2.378c-.541-1.135-.97-2.418-1.27-3.864l-5.875 1.22c.388 1.866.96 3.614 1.73 5.229l5.415-2.585zm-1.289-3.95a25.492 25.492 0 01-.584-3.814l-5.98.488c.135 1.663.375 3.237.727 4.716l5.837-1.39zm-.584-3.814a55.745 55.745 0 01-.178-4.537h-6c0 1.731.065 3.407.198 5.025l5.98-.488zm-.178-4.537V33.859h-6v10.032h6zm0-10.032c0-1.679.06-3.272.178-4.78l-5.981-.47a67.04 67.04 0 00-.197 5.25h6zm.173-4.723c.146-1.483.361-2.82.64-4.019l-5.844-1.359c-.347 1.49-.6 3.09-.767 4.793l5.971.586zm.64-4.02c.356-1.535.832-2.8 1.397-3.831l-5.263-2.882c-.873 1.594-1.522 3.391-1.979 5.356l5.845 1.357zm1.37-3.784c.587-1.028 1.266-1.832 2.021-2.454l-3.814-4.631c-1.37 1.128-2.504 2.511-3.416 4.108l5.209 2.977zm1.929-2.381a5.732 5.732 0 011.731-.893l-1.842-5.71a11.73 11.73 0 00-3.519 1.826l3.63 4.777zm1.705-.884c.667-.209 1.469-.333 2.433-.333v-6c-1.474 0-2.89.19-4.223.606l1.79 5.727zm2.433-.333c1.015 0 1.844.137 2.52.362l1.898-5.692c-1.387-.462-2.87-.67-4.418-.67v6zm2.545.37a6.88 6.88 0 011.998 1.01l3.571-4.822a12.851 12.851 0 00-3.722-1.896l-1.847 5.708zm1.918.948c.73.58 1.417 1.373 2.037 2.44l5.187-3.015c-.942-1.621-2.098-3.016-3.493-4.123l-3.731 4.698zm2.053 2.467c.627 1.053 1.155 2.3 1.562 3.768l5.781-1.606c-.529-1.907-1.252-3.66-2.187-5.231l-5.156 3.069zm1.563 3.772c.322 1.153.559 2.447.701 3.892l5.971-.585c-.17-1.743-.464-3.386-.893-4.92l-5.779 1.613zm.708 3.957c.172 1.432.26 2.968.26 4.611h6c0-1.856-.099-3.632-.303-5.326l-5.957.715zM58.297 101.484v3h3v-3h-3zm0-10.734h3v-3h-3v3zm-55.031 0v-3h-3v3h3zm0 10.734h-3v3h3v-3zm20.765 0h3v-3h-3v3zm0 57.516h-3v3h3v-3zm13.219 0v3h3v-3h-3zm0-57.516v-3h-3v3h3zm24.047 0V90.75h-6v10.734h6zm-3-13.734H3.266v6h55.03v-6zm-58.031 3v10.734h6V90.75h-6zm3 13.734H24.03v-6H3.266v6zm17.765-3V159h6v-57.516h-6zm3 60.516H37.25v-6H24.031v6zm16.219-3v-57.516h-6V159h6zm-3-54.516h21.047v-6H37.25v6zm70.547 24.61v3h3v-3h-3zm0-10.406h3v-3h-3v3zm-28.031 0h-3v3h3v-3zm0-17.204v-3h-3v3h3zm32.625 0v3h3v-3h-3zm0-10.734h3v-3h-3v3zm-45.844 0v-3h-3v3h3zm0 68.25h-3v3h3v-3zm45.984 0v3h3v-3h-3zm0-10.641h3v-3h-3v3zm-32.765 0h-3v3h3v-3zm0-19.265v-3h-3v3h3zm31.031 0v-10.406h-6v10.406h6zm-3-13.406H79.766v6h28.031v-6zm-25.031 3v-17.204h-6v17.204h6zm-3-14.204h32.625v-6H79.766v6zm35.625-3V90.75h-6v10.734h6zm-3-13.734H66.547v6h45.844v-6zm-48.844 3V159h6V90.75h-6zm3 71.25h45.984v-6H66.547v6zm48.984-3v-10.641h-6V159h6zm-3-13.641H79.766v6h32.765v-6zm-29.765 3v-19.265h-6v19.265h6zm-3-16.265h28.031v-6H79.766v6zm91.078 5.531l2.994.191.203-3.191h-3.197v3zm-13.172 0v-3h-2.824l-.171 2.819 2.995.181zm-15 11.203l-.87 2.871.051.016.051.013.768-2.9zm-2.813-1.406l1.786-2.411-.016-.012-.017-.012-1.753 2.435zm-2.109-2.11l-2.453 1.727.021.03.021.029 2.411-1.786zm-1.547-2.906l-2.793 1.096.004.009.004.009 2.785-1.114zm-1.406-5.578l-2.975.388.003.024.004.025 2.968-.437zm-.141-22.172l2.983.326v-.006l-2.983-.32zm.891-4.781l-2.883-.831-.002.008-.002.007 2.887.816zm2.109-4.828l-2.521-1.625-.005.007-.005.007 2.531 1.611zm3.282-3.235l-1.512-2.59-.004.002 1.516 2.588zm2.437-.984l-.704-2.916-.012.003-.012.003.728 2.91zm7.875.469l-1.081 2.798.038.015.038.014 1.005-2.827zm3.516 2.25l2.253-1.98-.032-.037-.033-.035-2.188 2.052zm2.062 3.844l-2.868.878.008.026.008.027 2.852-.931zm.938 5.343l-2.995.185.174 2.815h2.821v-3zm13.125 0v3h3.274l-.286-3.262-2.988.262zm-14.625-21.375l-1.03 2.818.009.003 1.021-2.82zm-17.11-.609l.824 2.885.014-.004.013-.004-.851-2.877zm-6.047 2.719l-1.624-2.522-.033.02-.033.023 1.69 2.479zm-9.468 12.093l2.774 1.143.013-.032.012-.031-2.799-1.08zm-1.969 6.938l2.954.523.001-.006-2.955-.517zm.047 25.359l-2.954.528.004.017.003.017 2.947-.562zm2.109 7.219l-2.771 1.148.007.017.007.017 2.757-1.182zm3.422 6l-2.41 1.787.01.013.01.013 2.39-1.813zm4.688 4.641l-1.773 2.42.009.007.008.006 1.756-2.433zm6.421 3.187l-.903 2.861.022.007.023.007.858-2.875zm17.579-.468l.993 2.83.014-.005.013-.004-1.02-2.821zm12.656-11.532l-2.72-1.267-.006.013-.005.013 2.731 1.241zm2.25-12.281h-13.172v6h13.172v-6zm-16.167 2.819c-.112 1.847-.413 3.295-.838 4.405l5.603 2.146c.7-1.828 1.086-3.911 1.224-6.189l-5.989-.362zm-.838 4.405c-.432 1.128-.976 1.94-1.582 2.526l4.173 4.312c1.332-1.289 2.319-2.882 3.012-4.692l-5.603-2.146zm-1.582 2.526c-.612.594-1.373 1.053-2.338 1.36l1.819 5.718c1.784-.568 3.367-1.484 4.692-2.766l-4.173-4.312zm-2.338 1.36c-1.031.328-2.264.515-3.731.515v6c1.97 0 3.831-.25 5.55-.797l-1.819-5.718zm-3.731.515c-1.064 0-1.974-.117-2.748-.322l-1.536 5.8c1.351.358 2.785.522 4.284.522v-6zm-2.646-.293a6.124 6.124 0 01-1.897-.946l-3.571 4.822a12.118 12.118 0 003.728 1.866l1.74-5.742zm-1.93-.97a6.65 6.65 0 01-1.451-1.46l-4.822 3.571a12.652 12.652 0 002.767 2.758l3.506-4.869zm-1.409-1.401a11.183 11.183 0 01-1.214-2.294l-5.571 2.228c.512 1.281 1.133 2.46 1.879 3.519l4.906-3.453zm-1.207-2.275c-.524-1.336-.944-2.966-1.231-4.919l-5.936.873c.337 2.296.855 4.385 1.581 6.237l5.586-2.191zm-1.224-4.871c-.261-2-.397-4.305-.397-6.924h-6c0 2.818.146 5.388.447 7.7l5.95-.776zm-.397-6.924v-9.282h-6v9.282h6zm0-9.282c0-1.907.089-3.657.264-5.252l-5.965-.651a54.561 54.561 0 00-.299 5.903h6zm.264-5.258c.173-1.611.442-3.036.795-4.285l-5.774-1.632c-.459 1.626-.784 3.389-.987 5.278l5.966.639zm.791-4.27c.465-1.616 1.061-2.954 1.757-4.048l-5.062-3.222c-1.053 1.655-1.864 3.537-2.461 5.608l5.766 1.662zm1.748-4.034c.684-1.061 1.449-1.787 2.275-2.27l-3.031-5.178c-1.737 1.016-3.159 2.446-4.287 4.198l5.043 3.25zm2.271-2.268a6.26 6.26 0 011.654-.665l-1.456-5.821a12.267 12.267 0 00-3.221 1.303l3.023 5.183zm1.63-.66a9.395 9.395 0 012.202-.244v-6c-1.243 0-2.45.132-3.61.412l1.408 5.832zm2.202-.244c1.678 0 2.947.232 3.888.595l2.162-5.596c-1.809-.7-3.853-.999-6.05-.999v6zm3.964.624c.996.354 1.75.854 2.332 1.475l4.377-4.104c-1.293-1.379-2.883-2.38-4.699-3.025l-2.01 5.654zm2.267 1.403c.583.663 1.083 1.55 1.448 2.742l5.737-1.757c-.573-1.87-1.448-3.546-2.678-4.945l-4.507 3.96zm1.464 2.795c.404 1.235.682 2.756.795 4.597l5.989-.369c-.137-2.222-.484-4.264-1.08-6.091l-5.704 1.863zm3.79 7.412h13.125v-6h-13.125v6zm16.113-3.262c-.335-3.822-1.146-7.333-2.47-10.503l-5.537 2.312c1.052 2.517 1.74 5.412 2.03 8.716l5.977-.525zm-2.47-10.503c-1.334-3.195-3.186-5.955-5.572-8.233l-4.143 4.34c1.739 1.66 3.137 3.713 4.178 6.205l5.537-2.312zm-5.572-8.233c-2.392-2.283-5.259-4.007-8.551-5.198l-2.041 5.642c2.584.935 4.716 2.242 6.449 3.896l4.143-4.34zm-8.541-5.194c-3.298-1.206-6.986-1.776-11.015-1.776v6c3.471 0 6.44.492 8.955 1.411l2.06-5.635zm-11.015-1.776c-2.792 0-5.456.362-7.976 1.107l1.702 5.754c1.918-.567 4.004-.861 6.274-.861v-6zm-7.949 1.1a25.519 25.519 0 00-6.847 3.08l3.249 5.045a19.52 19.52 0 015.246-2.356l-1.648-5.77zm-6.913 3.124c-2.319 1.581-4.38 3.507-6.183 5.76l4.685 3.749a22.376 22.376 0 014.878-4.552l-3.38-4.957zm-6.183 5.76c-1.83 2.288-3.292 4.872-4.395 7.733l5.599 2.159c.897-2.327 2.06-4.368 3.481-6.143l-4.685-3.748zm-4.369 7.67c-.966 2.346-1.679 4.871-2.15 7.563l5.91 1.034c.404-2.308 1.004-4.408 1.788-6.312l-5.548-2.285zm-2.149 7.557c-.471 2.657-.702 5.442-.702 8.351h6c0-2.591.206-5.024.61-7.305l-5.908-1.046zm-.702 8.351v9.188h6v-9.188h-6zm0 9.188c0 3.096.247 6.055.749 8.871l5.907-1.055c-.435-2.434-.656-5.038-.656-7.816h-6zm.756 8.905c.533 2.801 1.291 5.406 2.285 7.805l5.543-2.296c-.819-1.976-1.468-4.183-1.934-6.632l-5.894 1.123zm2.299 7.839a32.612 32.612 0 003.769 6.605l4.82-3.574a26.6 26.6 0 01-3.074-5.395l-5.515 2.364zm3.789 6.631a25.728 25.728 0 005.305 5.248l3.545-4.841a19.692 19.692 0 01-4.07-4.033l-4.78 3.626zm5.322 5.261c2.181 1.573 4.612 2.774 7.274 3.615l1.807-5.721c-2.089-.66-3.939-1.583-5.57-2.76l-3.511 4.866zm7.319 3.629c2.716.811 5.618 1.203 8.687 1.203v-6c-2.557 0-4.873-.326-6.97-.952l-1.717 5.749zm8.687 1.203c3.852 0 7.444-.558 10.743-1.716l-1.987-5.661c-2.576.904-5.484 1.377-8.756 1.377v6zm10.77-1.725c3.275-1.185 6.155-2.88 8.595-5.105l-4.043-4.433c-1.81 1.65-3.993 2.955-6.593 3.895l2.041 5.643zm8.595-5.105c2.44-2.225 4.362-4.905 5.772-8.006l-5.462-2.483c-1.091 2.399-2.543 4.406-4.353 6.056l4.043 4.433zm5.76-7.981c1.459-3.131 2.285-6.597 2.525-10.357l-5.988-.382c-.198 3.115-.872 5.837-1.976 8.205l5.439 2.534zM226.156 159v3h3v-3h-3zm0-68.25h3v-3h-3v3zm-13.031 0v-3h-3v3h3zm0 27.984v3h3v-3h-3zm-19.313 0h-3v3h3v-3zm0-27.984h3v-3h-3v3zm-13.078 0v-3h-3v3h3zm0 68.25h-3v3h3v-3zm13.078 0v3h3v-3h-3zm0-29.578v-3h-3v3h3zm19.313 0h3v-3h-3v3zm0 29.578h-3v3h3v-3zm16.031 0V90.75h-6V159h6zm-3-71.25h-13.031v6h13.031v-6zm-16.031 3v27.984h6V90.75h-6zm3 24.984h-19.313v6h19.313v-6zm-16.313 3V90.75h-6v27.984h6zm-3-30.984h-13.078v6h13.078v-6zm-16.078 3V159h6V90.75h-6zm3 71.25h13.078v-6h-13.078v6zm16.078-3v-29.578h-6V159h6zm-3-26.578h19.313v-6h-19.313v6zm16.313-3V159h6v-29.578h-6zm3 32.578h13.031v-6h-13.031v6z" fill="#fff"/></svg>