<svg width="40" height="80" fill="none" xmlns="http://www.w3.org/2000/svg"><path d="M27.39 63.79l.266-1.49-1.778-.316v1.805h1.513zm0 4.71h-1.512v1.267l1.247.222.266-1.489zM37 70.21h1.513v-1.266l-1.248-.222L37 70.21zm0 4.196l-.265 1.49 1.778.316v-1.806H37zm-9.61-1.71l.266-1.49-1.778-.316v1.805h1.513zm0 5.343v1.513h1.513v-1.513h-1.512zm-3.96 0h-1.513v1.513h1.513v-1.513zm0-6.047h1.512v-1.265l-1.245-.224-.267 1.49zm-6.797-1.219l.267-1.488-1.78-.32v1.808h1.513zm0 5.508v1.513h1.512V76.28h-1.512zm-4.008 0h-1.512v1.513h1.512V76.28zm0-6.21h1.512v-1.265l-1.244-.224-.268 1.488zm-9.75-1.758H1.363v1.264l1.244.224.268-1.489zm0-4.172l.265-1.49-1.778-.316v1.806h1.513zm9.75 1.734l-.265 1.49 1.777.315v-1.805h-1.512zm0-4.71h1.512v-1.268l-1.247-.222-.265 1.49zm-9.75-1.735H1.363v1.267l1.247.222.265-1.49zm0-4.22l.268-1.488-1.78-.32v1.809h1.512zm9.75 1.759l-.268 1.488 1.78.321v-1.81h-1.512zm0-5.086V50.37h-1.512v1.513h1.512zm4.008 0h1.512V50.37h-1.512v1.513zm0 5.789H15.12v1.265l1.246.224.267-1.49zm6.797 1.219l-.267 1.488 1.78.32V58.89H23.43zm0-5.227v-1.512h-1.513v1.512h1.513zm3.96 0h1.513v-1.512h-1.512v1.512zm0 5.93h-1.512v1.267l1.247.222.266-1.49zm9.61 1.71h1.513v-1.266l-1.248-.222L37 61.305zm0 4.196l-.265 1.49 1.778.316V65.5H37zm-13.57 2.297l-.262 1.49 1.774.312v-1.802H23.43zm0-4.711h1.512v-1.27l-1.25-.22-.262 1.49zm-6.797-1.195l.262-1.49-1.775-.312v1.802h1.513zm0 4.71H15.12v1.27l1.25.22.263-1.49zm9.245-2.812V68.5h3.025v-4.71h-3.025zm1.247 6.2l9.61 1.711.53-2.978-9.61-1.711-.53 2.978zm8.362.222v4.195h3.026v-4.195h-3.026zm1.778 2.706l-9.61-1.71-.53 2.977 9.61 1.711.53-2.978zm-11.387-.222v5.344h3.025v-5.344h-3.025zm1.513 3.832H23.43v3.025h3.96v-3.025zm-2.449 1.512v-6.047h-3.025v6.047h3.025zm-1.245-7.536L16.9 69.285l-.534 2.977 6.797 1.219.534-2.978zm-8.577.27v5.508h3.025v-5.508H15.12zm1.513 3.996h-4.008v3.025h4.008v-3.025zm-2.495 1.512v-6.21h-3.025v6.21h3.024zm-1.245-7.7l-9.75-1.757-.536 2.977 9.75 1.758.536-2.977zm-8.506-.269v-4.171H1.364v4.171h3.025zM2.61 65.63l9.75 1.734.53-2.978-9.75-1.734-.53 2.978zm11.527.245v-4.71h-3.024v4.71h3.024zm-1.247-6.2L3.14 57.94l-.53 2.978 9.75 1.734.53-2.978zm-8.503-.245v-4.22H1.363v4.22h3.025zm-1.78-2.73l9.75 1.757.536-2.977-9.75-1.758-.536 2.977zm11.53.269v-5.086h-3.024v5.086h3.024zm-1.512-3.574h4.008V50.37h-4.008v3.025zm2.495-1.512v5.789h3.025v-5.79H15.12zm1.246 7.278l6.797 1.218.534-2.977-6.797-1.219-.534 2.978zm8.576-.27v-5.227h-3.025v5.227h3.025zm-1.512-3.714h3.96v-3.025h-3.96v3.025zm2.448-1.513v5.93h3.025v-5.93h-3.025zm1.247 7.419l9.61 1.71.53-2.977-9.61-1.711-.53 2.978zm8.362.222V65.5h3.026v-4.195h-3.026zm1.778 2.706l-9.61-1.711-.53 2.978 9.61 1.711.53-2.978zm-12.323 3.786v-4.711h-3.025v4.71h3.025zm-1.25-6.2L16.895 60.4l-.524 2.98 6.797 1.195.524-2.98zm-8.572.294v4.71h3.025v-4.71H15.12zm1.25 6.2l6.798 1.196.524-2.98-6.797-1.195-.524 2.98zm13.482-42.67l-.442 1.447.008.003.434-1.45zm4.218 2.18l.978-1.153-.008-.007-.97 1.16zm0 16.266l.97 1.16.009-.006.008-.008-.987-1.146zm-4.218 2.227l.442 1.446.008-.002.008-.003-.458-1.441zm-19.805 0l.446-1.446h-.004l-.442 1.446zM5.828 43.89l-.979 1.152.001.002.978-1.154zM3.25 40.398l-1.394.587.002.005 1.392-.592zm2.578-12.75l.97 1.161.009-.007.008-.007-.987-1.147zm4.219-2.226l.442 1.446h.004l-.446-1.446zm11.156 14.883v1.512h3.013l-1.8-2.416-1.213.904zM14.43 31.21l1.213-.904-.466-.624-.778.016.03 1.512zm4.43 0v-1.513h-3.007l1.792 2.414 1.214-.901zm6.75 9.094l-1.215.901.473.638.794-.028-.053-1.511zm5.015-1.242l.855 1.247.009-.006-.864-1.242zm-.164-6.727l-.808 1.279.006.004.006.003.796-1.286zm-6.445-6.175c2.089 0 3.88.245 5.394.707l.884-2.893c-1.862-.568-3.961-.84-6.278-.84v3.026zm5.402.71c1.51.451 2.724 1.09 3.682 1.891l1.94-2.321c-1.323-1.106-2.92-1.92-4.755-2.468l-.867 2.898zm3.675 1.885a7.655 7.655 0 012.138 2.924l2.788-1.172a10.681 10.681 0 00-2.971-4.06l-1.955 2.308zm2.138 2.924c.489 1.163.749 2.507.749 4.054h3.025c0-1.89-.319-3.64-.986-5.227l-2.788 1.173zm.749 4.054c0 1.53-.26 2.866-.75 4.031l2.79 1.173c.666-1.585.985-3.328.985-5.204H35.98zm-.75 4.031a7.856 7.856 0 01-2.147 2.956l1.974 2.292a10.881 10.881 0 002.962-4.075l-2.788-1.173zm-2.13 2.942c-.965.806-2.189 1.463-3.707 1.945l.917 2.883c1.826-.58 3.414-1.408 4.73-2.507l-1.94-2.321zm-3.69 1.94c-1.514.463-3.305.708-5.394.708v3.025c2.317 0 4.416-.271 6.278-.84l-.884-2.893zm-5.394.708h-8.157v3.025h8.157v-3.025zm-8.157 0c-2.089 0-3.87-.245-5.366-.707L9.6 47.54c1.848.57 3.941.84 6.258.84v-3.024zm-5.37-.708c-1.529-.467-2.743-1.114-3.683-1.91L4.85 45.045c1.31 1.11 2.909 1.931 4.755 2.495l.884-2.893zm-3.682-1.91a7.791 7.791 0 01-2.165-2.93L1.858 40.99a10.815 10.815 0 002.991 4.053l1.958-2.305zm-2.163-2.925c-.49-1.165-.749-2.5-.749-4.03H.87c0 1.875.32 3.618.986 5.203l2.788-1.173zm-.749-4.03c0-1.549.26-2.892.75-4.055l-2.79-1.173C1.19 32.141.87 33.892.87 35.781h3.025zm.75-4.055a7.552 7.552 0 012.153-2.918l-1.94-2.321a10.577 10.577 0 00-3.002 4.066l2.788 1.173zm2.17-2.932c.94-.81 2.15-1.46 3.674-1.927l-.884-2.893c-1.85.566-3.453 1.398-4.764 2.527l1.974 2.293zm3.678-1.928c1.495-.461 3.277-.706 5.366-.706v-3.025c-2.317 0-4.41.27-6.258.84l.892 2.891zm5.366-.706h8.157v-3.025h-8.157v3.025zm6.557 13.24l-6.773-9.094-2.426 1.807 6.773 9.094 2.426-1.807zM14.4 29.7c-2.404.049-4.458.462-5.926 1.454l1.694 2.506c.751-.507 2.104-.891 4.293-.936L14.4 29.7zm-5.926 1.454c-1.58 1.069-2.33 2.697-2.33 4.628H9.17c0-1.068.36-1.69.998-2.122l-1.694-2.506zm-2.33 4.628c0 1.977.805 3.616 2.456 4.673l1.63-2.548c-.693-.444-1.06-1.07-1.06-2.125H6.144zM8.6 40.454c1.537.983 3.693 1.363 6.23 1.363v-3.025c-2.34 0-3.793-.37-4.6-.886L8.6 40.454zm6.23 1.363h6.374v-3.025h-6.375v3.025zm2.816-9.705l6.75 9.094 2.429-1.803-6.75-9.093-2.43 1.802zm8.017 9.704c2.36-.082 4.374-.516 5.818-1.506l-1.71-2.495c-.744.51-2.072.904-4.213.978l.105 3.023zm5.827-1.512c1.537-1.07 2.266-2.674 2.266-4.57H30.73c0 1.042-.35 1.657-.969 2.087l1.728 2.483zm2.266-4.57c0-1.994-.816-3.644-2.499-4.685l-1.59 2.573c.692.429 1.064 1.044 1.064 2.112h3.025zm-2.486-4.677c-1.55-.979-3.717-1.359-6.269-1.359v3.025c2.354 0 3.828.37 4.653.892l1.616-2.558zM25 29.698h-6.14v3.025H25v-3.025zm12-27.62h1.513V.566H37v1.512zm0 6.586v1.513h1.513V8.664H37zm-26.18 0V7.152H8.67l.727 2.023 1.423-.51zm3.094 8.625v1.513h2.15l-.726-2.024-1.424.511zm-5.672 0l-1.422.514.36.999h1.062v-1.513zM2.875 2.43H1.363v.265l.09.25 1.422-.514zm0-.35V.565H1.363v1.512h1.512zm32.612 0v6.585h3.026V2.078h-3.026zM37 7.151H10.82v3.025H37V7.152zM9.397 9.175L12.49 17.8l2.848-1.022-3.094-8.625-2.847 1.022zm4.517 6.602H8.242v3.025h5.672v-3.025zm-4.25.998L4.299 1.915l-2.847 1.03L6.82 17.803l2.845-1.028zM4.389 2.43v-.352H1.362v.352h3.026zM2.875 3.59H37V.567H2.875V3.59z" fill="#ECB02B"/></svg>