<svg width="40" height="86" fill="none" xmlns="http://www.w3.org/2000/svg"><path d="M27.39 69.79l.266-1.49-1.778-.316v1.805h1.513zM37 71.5l-.265 1.49 1.778.316V71.5H37zm0-4.195h1.513v-1.267l-1.248-.222L37 67.305zm-9.61-1.711h-1.512v1.267l1.247.222.266-1.49zm0-5.93h1.513v-1.512h-1.512v1.512zm-3.96 0v-1.512h-1.513v1.512h1.513zm0 5.227l-.267 1.488 1.78.32V64.89H23.43zm-6.797-1.22H15.12v1.266l1.246.224.267-1.49zm0-5.788h1.512V56.37h-1.512v1.513zm-4.008 0V56.37h-1.512v1.513h1.512zm0 5.086l-.268 1.488 1.78.321v-1.81h-1.512zm-9.75-1.758l.268-1.489-1.78-.32v1.809h1.512zm0 4.219H1.363v1.267l1.247.222.265-1.49zm9.75 1.734h1.512v-1.267l-1.247-.222-.265 1.49zm0 4.711l-.265 1.49 1.777.315v-1.805h-1.512zm-9.75-1.734l.265-1.49-1.778-.316v1.806h1.513zm0 4.171H1.363v1.265l1.244.224.268-1.489zm9.75 1.758h1.512v-1.264l-1.244-.224-.268 1.488zm0 6.211h-1.512v1.513h1.512V82.28zm4.008 0v1.513h1.512V82.28h-1.512zm0-5.508l.267-1.488-1.78-.32v1.808h1.513zm6.797 1.22h1.512v-1.266l-1.245-.224-.267 1.49zm0 6.046h-1.513v1.513h1.513v-1.513zm3.96 0v1.513h1.513v-1.513h-1.512zm0-5.344l.266-1.489-1.778-.316v1.805h1.513zM37 80.406l-.265 1.49 1.778.316v-1.806H37zm0-4.195h1.513v-1.267l-1.248-.222L37 76.21zM27.39 74.5h-1.512v1.267l1.247.222.266-1.489zm-3.96-.703l-.262 1.49 1.774.312v-1.802H23.43zm-6.797-1.195H15.12v1.27l1.25.22.263-1.49zm0-4.711l.262-1.49-1.775-.312v1.802h1.513zm6.797 1.195h1.512v-1.27l-1.25-.22-.262 1.49zm3.695 2.192l9.61 1.711.53-2.978-9.61-1.711-.53 2.978zm11.388.222v-4.195h-3.026V71.5h3.026zm-1.248-5.684l-9.61-1.711-.53 2.978 9.61 1.71.53-2.977zm-8.362-.222v-5.93h-3.025v5.93h3.025zm-1.512-7.442H23.43v3.025h3.96v-3.025zm-5.474 1.512v5.227h3.025v-5.227h-3.025zm1.78 3.738L16.9 62.183l-.534 2.978 6.797 1.218.534-2.977zm-5.552.27v-5.79H15.12v5.79h3.025zm-1.512-7.302h-4.008v3.025h4.008V56.37zm-5.52 1.513v5.086h3.024v-5.086h-3.024zm1.78 3.597l-9.75-1.758-.536 2.977 9.75 1.758.536-2.977zm-11.53-.27v4.22h3.025v-4.22H1.362zm1.247 5.71l9.75 1.734.53-2.978-9.75-1.734-.53 2.978zm8.503.245v4.711h3.024v-4.71h-3.024zm1.777 3.222l-9.75-1.734-.53 2.978 9.75 1.734.53-2.978zM1.363 70.14v4.171h3.025V70.14H1.362zm1.244 5.66l9.75 1.758.536-2.977-9.75-1.758-.536 2.977zm8.505.27v6.21h3.025v-6.21h-3.024zm1.513 7.723h4.008v-3.025h-4.008v3.025zm5.52-1.513v-5.508H15.12v5.508h3.025zm-1.78-4.019l6.798 1.219.534-2.978-6.797-1.218-.534 2.977zm5.552-.27v6.047h3.025v-6.047h-3.025zm1.513 7.56h3.96v-3.025h-3.96v3.025zm5.473-1.513v-5.344h-3.025v5.344h3.025zm-1.777-3.855l9.609 1.711.53-2.978-9.61-1.71-.53 2.977zm11.387.222V76.21h-3.026v4.195h3.026zm-1.248-5.684l-9.61-1.711-.53 2.978 9.61 1.711.53-2.978zm-8.362-.222v-4.71h-3.025v4.71h3.025zm-5.211-2.193l-6.797-1.195-.524 2.98 6.797 1.195.524-2.98zm-5.547.295V67.89H15.12v4.71h3.025zm-1.774-3.222l6.797 1.196.524-2.98-6.797-1.195-.524 2.98zm5.546-.294v4.71h3.025v-4.71h-3.025zm-11.87-37.664l.442 1.446h.004l-.446-1.446zm-4.242 2.203l-.97-1.16-.009.007-.008.007.987 1.146zM3.25 46.398l-1.394.587.002.005 1.392-.592zm2.555 3.47l.979-1.154h-.002l-.977 1.153zm4.242 2.226l.446-1.446h-.004l-.442 1.446zm19.805 0l.442 1.446.008-.002.008-.003-.458-1.441zm4.195-2.25l-.97-1.16-.009.006-.008.008.987 1.146zm0-16.242l-.978 1.154.008.006.97-1.16zm-4.195-2.18l-.442 1.446.008.003.434-1.45zm-8.649 14.883v1.512h3.013l-1.8-2.416-1.213.904zm-9.656-.282L11.22 47.5l.012.003.012.003.302-1.483zm-2.25-.914l.87-1.237-.008-.005-.007-.005-.855 1.247zm-1.219-1.382l1.36-.661-.003-.008-.004-.008-1.353.677zm-.094-3.704l1.393.591.01-.025.01-.025-1.413-.54zm.961-1.336l.96 1.17.013-.01.012-.011-.985-1.148zm2.203-1.054l.373 1.466.015-.004.015-.004-.403-1.458zm3.282-.422l1.213-.904-.468-.627-.782.019.037 1.512zm13.875.305l-.32 1.478.009.002.01.002.3-1.482zm2.273.867l.84-1.259-.009-.005-.83 1.264zm1.266 1.406l1.367-.646-.007-.015-.007-.015-1.353.676zm-1.5 5.438l-.764-1.306-.016.01-.015.009.795 1.287zM28.352 46l.319 1.478.013-.003.014-.003L28.352 46zm-2.743.305l-1.214.901.47.634.79-.024-.046-1.511zm-6.75-9.094v-1.513h-3.006l1.792 2.414 1.214-.901zm5.157-8.075h-8.157v3.025h8.157v-3.025zm-8.157 0c-2.317 0-4.41.27-6.258.84l.892 2.891c1.495-.461 3.277-.706 5.366-.706v-3.025zm-6.254.84c-1.845.563-3.448 1.384-4.77 2.488l1.94 2.322c.959-.802 2.184-1.45 3.714-1.918l-.884-2.893zm-4.787 2.503a10.88 10.88 0 00-2.962 4.075l2.788 1.173a7.857 7.857 0 012.148-2.956L4.818 32.48zm-2.962 4.075C1.189 38.141.87 39.892.87 41.781h3.025c0-1.548.26-2.89.75-4.054l-2.79-1.173zM.87 41.781c0 1.876.32 3.619.986 5.204l2.788-1.173c-.49-1.165-.749-2.5-.749-4.03H.87zm.988 5.21a10.72 10.72 0 002.969 4.03l1.955-2.308a7.697 7.697 0 01-2.14-2.907L1.858 46.99zm2.968 4.029c1.323 1.124 2.929 1.955 4.779 2.52l.884-2.893c-1.525-.466-2.747-1.12-3.705-1.933L4.826 51.02zM9.6 53.54c1.848.569 3.941.84 6.258.84v-3.025c-2.089 0-3.87-.245-5.366-.707L9.6 53.54zm6.258.84h8.157v-3.025h-8.157v3.025zm8.157 0c2.317 0 4.416-.271 6.278-.84l-.884-2.893c-1.514.463-3.305.708-5.394.708v3.025zm6.294-.845c1.831-.582 3.419-1.421 4.724-2.545l-1.974-2.292c-.945.813-2.154 1.474-3.667 1.954l.917 2.883zm4.707-2.53a10.577 10.577 0 003.002-4.067l-2.788-1.173a7.551 7.551 0 01-2.154 2.918l1.94 2.321zm3.002-4.067c.667-1.585.986-3.328.986-5.204H35.98c0 1.53-.26 2.866-.75 4.031l2.79 1.173zm.986-5.204c0-1.89-.319-3.64-.986-5.227L35.23 37.68c.489 1.163.749 2.507.749 4.054h3.025zm-.986-5.227a10.578 10.578 0 00-3.002-4.066l-1.94 2.321a7.551 7.551 0 012.154 2.918l2.788-1.172zm-2.994-4.06c-1.311-1.11-2.904-1.925-4.74-2.474l-.867 2.898c1.508.451 2.712 1.089 3.651 1.885l1.956-2.309zm-4.731-2.472c-1.862-.568-3.961-.84-6.278-.84v3.026c2.089 0 3.88.245 5.394.707l.884-2.893zm-9.09 14.817h-1.101v3.025h1.101v-3.025zm-1.102 0h-1.498v3.025h1.499v-3.025zm-1.5 0h-3.774v3.025h3.774v-3.025zm-3.774 0c-1.196 0-2.184-.089-2.98-.25l-.603 2.964c1.049.213 2.248.311 3.583.311v-3.025zm-2.956-.246c-.788-.173-1.336-.415-1.706-.674l-1.739 2.475c.787.553 1.74.921 2.794 1.154l.651-2.955zm-1.72-.684c-.35-.24-.573-.507-.713-.796l-2.721 1.321c.39.804.98 1.46 1.724 1.97l1.71-2.495zm-.721-.812c-.16-.32-.262-.73-.262-1.269H6.144c0 .93.179 1.817.581 2.622l2.706-1.353zm-.262-1.269c0-.487.08-.867.208-1.167l-2.785-1.181c-.31.731-.448 1.523-.448 2.348h3.025zm.228-1.217a1.65 1.65 0 01.508-.708l-1.92-2.337a4.672 4.672 0 00-1.413 1.964l2.825 1.08zm.533-.728c.322-.277.825-.543 1.591-.737l-.745-2.932c-1.078.274-2.044.711-2.815 1.372l1.969 2.297zm1.62-.745c.754-.208 1.717-.339 2.917-.368l-.074-3.024c-1.364.033-2.587.184-3.647.476l.805 2.916zm1.667-.977l6.773 9.094 2.426-1.807-6.773-9.094-2.426 1.807zm11.783.61c1.19 0 2.18.095 2.984.27l.641-2.957c-1.07-.231-2.284-.339-3.625-.339v3.025zm3.003.274c.791.16 1.354.392 1.744.648l1.662-2.527c-.797-.525-1.75-.871-2.803-1.086l-.603 2.965zm1.736.643c.36.24.597.515.752.825l2.706-1.353a5.14 5.14 0 00-1.78-1.989l-1.678 2.517zm.737.794c.155.327.254.748.254 1.3h3.025c0-.918-.167-1.794-.544-2.592l-2.735 1.292zm.254 1.3c0 .598-.117 1.028-.287 1.343l2.661 1.438c.455-.841.65-1.787.65-2.782H30.73zm-.287 1.343c-.165.304-.43.59-.863.843l1.528 2.61c.848-.495 1.535-1.163 1.996-2.015l-2.661-1.438zm-.894.862c-.357.22-.859.427-1.544.588l.693 2.944c.909-.214 1.735-.523 2.44-.959l-1.59-2.573zm-1.516.582c-.687.148-1.507.242-2.47.27l.092 3.024c1.1-.033 2.109-.142 3.015-.338l-.637-2.956zm-1.21.881l-6.75-9.093-2.428 1.802 6.75 9.094 2.429-1.803zm-7.964-6.68h1.056v-3.025H18.86v3.025zm1.055 0h1.127v-3.025h-1.125v3.025zm1.125 0H25v-3.025h-3.96v3.025zM37 1.727h1.513V.214H37v1.513zm-5.227 0V.214h-1.512v1.513h1.512zm0 14.976l-1.038 1.1 2.55 2.41v-3.51h-1.512zm-6.796-6.422l-1.055 1.085.008.007.008.008 1.039-1.1zm-3.258-3.023l.998-1.136-.008-.008-.99 1.144zm-3.07-2.344l.83-1.264-.008-.005-.007-.005-.816 1.274zm-3.024-1.476l-.498 1.428.013.004.485-1.433zm-7.29.164l.538 1.414.006-.003-.543-1.411zM5.173 5.64l-1.08-1.06-.008.009 1.088 1.05zm-2.04 3.375l1.422.518.002-.005-1.423-.513zm.165 9.562l1.41-.549-.004-.008-1.406.557zm2.39 3.797l1.094-1.045-.008-.008-1.085 1.053zm3.563 2.46l.598-1.388-.006-.003-.592 1.392zm4.29.868v1.513h1.512v-1.513H13.54zm0-6.539h1.512v-1.512H13.54v1.512zM9.274 17.78l1.034-1.104-.002-.002-1.032 1.106zM8.22 16.14l1.424-.51-.003-.008-.004-.01-1.417.528zm-.047-4.149l1.404.562.003-.007.003-.007-1.41-.548zm.937-1.453L8.082 9.43l-.022.02-.02.02 1.07 1.07zm5.157-.984l-.454 1.443.019.006.02.005.415-1.454zm1.757.773l.765-1.305-.01-.006-.755 1.311zm4.665 3.633l1.03-1.107-.009-.008-1.021 1.115zM32.547 25l-1.03 1.107.435.405h.595V25zM37 25v1.512h1.513V25H37zM37 .214h-5.227V3.24H37V.214zm-6.74 1.513v14.976h3.026V1.727H30.26zm2.552 13.877l-6.797-6.422-2.077 2.199 6.797 6.421 2.077-2.198zm-6.78-6.407a89.82 89.82 0 00-3.315-3.075L20.72 8.394a86.766 86.766 0 013.202 2.972l2.11-2.169zm-3.323-3.083a30.705 30.705 0 00-3.23-2.464l-1.66 2.529a27.692 27.692 0 012.91 2.222l1.98-2.287zM19.464 3.64a15.344 15.344 0 00-3.354-1.635l-.97 2.865c.888.3 1.785.736 2.693 1.318l1.631-2.548zm-3.341-1.63a11.27 11.27 0 00-3.732-.624V4.41c.96 0 1.87.153 2.736.455l.996-2.857zm-3.732-.624c-1.645 0-3.184.26-4.598.804l1.086 2.823c1.023-.393 2.188-.602 3.512-.602V1.386zm-4.592.802c-1.426.541-2.67 1.337-3.706 2.393L6.25 6.7c.713-.726 1.58-1.29 2.622-1.685L7.799 2.188zM4.084 4.59C3.042 5.67 2.257 6.985 1.71 8.503l2.846 1.026c.421-1.17.996-2.104 1.704-2.838L4.084 4.59zM1.712 8.497c-.557 1.527-.818 3.24-.818 5.112h3.025c0-1.596.223-2.946.635-4.075L1.712 8.497zM.894 13.61c0 1.98.325 3.828.997 5.526l2.812-1.114c-.515-1.302-.784-2.766-.784-4.412H.894zm.993 5.518c.645 1.655 1.546 3.097 2.715 4.301l2.171-2.106c-.863-.89-1.555-1.979-2.067-3.293l-2.819 1.098zm2.707 4.293a12.146 12.146 0 004.064 2.808l1.184-2.784A9.122 9.122 0 016.78 21.33l-2.187 2.09zm4.058 2.805c1.54.663 3.174.99 4.887.99v-3.024a9.226 9.226 0 01-3.691-.744l-1.196 2.778zm6.4-.522v-6.539h-3.025v6.54h3.025zm-1.513-8.051c-.796 0-1.454-.102-1.992-.277l-.938 2.875c.9.294 1.883.427 2.93.427v-3.025zm-1.992-.277c-.538-.176-.939-.416-1.24-.698L8.24 18.886c.667.624 1.47 1.071 2.37 1.364l.937-2.875zm-1.242-.7a2.568 2.568 0 01-.662-1.043L6.794 16.65a5.588 5.588 0 001.447 2.238l2.064-2.212zm-.669-1.062c-.175-.47-.28-1.06-.28-1.793H6.331c0 1.017.145 1.975.47 2.848l2.835-1.055zm-.28-1.793c0-.506.082-.921.22-1.266L6.768 11.43a6.391 6.391 0 00-.437 2.39h3.025zm.226-1.28c.146-.377.346-.68.597-.931l-2.14-2.14a5.671 5.671 0 00-1.277 1.975l2.82 1.096zm.555-.891a2.996 2.996 0 011.019-.605L10.11 8.206a6.014 6.014 0 00-2.028 1.223l2.055 2.22zm1.019-.605c.395-.145.892-.235 1.516-.235V7.784c-.908 0-1.77.13-2.562.422l1.046 2.838zm1.516-.235c.345 0 .724.058 1.14.189l.907-2.886a6.813 6.813 0 00-2.047-.328v3.025zm1.178.2c.402.115.874.317 1.42.63l1.507-2.622c-.704-.405-1.404-.719-2.096-.917l-.83 2.909zm1.41.624c.57.334 1.217.779 1.946 1.344l1.854-2.391a21.453 21.453 0 00-2.272-1.563l-1.529 2.61zm1.946 1.344a39.92 39.92 0 012.46 2.099l2.043-2.23a42.841 42.841 0 00-2.65-2.26l-1.853 2.39zm2.451 2.091l11.86 11.04 2.06-2.215-11.859-11.04-2.061 2.215zm12.89 11.444H37v-3.024h-4.453v3.024zM38.513 25V1.727h-3.026V25h3.026z" fill="#ECB02B"/></svg>