<svg width="40" height="86" fill="none" xmlns="http://www.w3.org/2000/svg"><path d="M27.39 69.79l.266-1.49-1.778-.316v1.805h1.513zM37 71.5l-.265 1.49 1.778.316V71.5H37zm0-4.195h1.513v-1.267l-1.248-.222L37 67.305zm-9.61-1.711h-1.512v1.267l1.247.222.266-1.49zm0-5.93h1.513v-1.512h-1.512v1.512zm-3.96 0v-1.512h-1.513v1.512h1.513zm0 5.227l-.267 1.488 1.78.32V64.89H23.43zm-6.797-1.22H15.12v1.266l1.246.224.267-1.49zm0-5.788h1.512V56.37h-1.512v1.513zm-4.008 0V56.37h-1.512v1.513h1.512zm0 5.086l-.268 1.488 1.78.321v-1.81h-1.512zm-9.75-1.758l.268-1.489-1.78-.32v1.809h1.512zm0 4.219H1.363v1.267l1.247.222.265-1.49zm9.75 1.734h1.512v-1.267l-1.247-.222-.265 1.49zm0 4.711l-.265 1.49 1.777.315v-1.805h-1.512zm-9.75-1.734l.265-1.49-1.778-.316v1.806h1.513zm0 4.171H1.363v1.265l1.244.224.268-1.489zm9.75 1.758h1.512v-1.264l-1.244-.224-.268 1.488zm0 6.211h-1.512v1.513h1.512V82.28zm4.008 0v1.513h1.512V82.28h-1.512zm0-5.508l.267-1.488-1.78-.32v1.808h1.513zm6.797 1.22h1.512v-1.266l-1.245-.224-.267 1.49zm0 6.046h-1.513v1.513h1.513v-1.513zm3.96 0v1.513h1.513v-1.513h-1.512zm0-5.344l.266-1.489-1.778-.316v1.805h1.513zM37 80.406l-.265 1.49 1.778.316v-1.806H37zm0-4.195h1.513v-1.267l-1.248-.222L37 76.21zM27.39 74.5h-1.512v1.267l1.247.222.266-1.489zm-3.96-.703l-.262 1.49 1.774.312v-1.802H23.43zm-6.797-1.195H15.12v1.27l1.25.22.263-1.49zm0-4.711l.262-1.49-1.775-.312v1.802h1.513zm6.797 1.195h1.512v-1.27l-1.25-.22-.262 1.49zm3.695 2.192l9.61 1.711.53-2.978-9.61-1.711-.53 2.978zm11.388.222v-4.195h-3.026V71.5h3.026zm-1.248-5.684l-9.61-1.711-.53 2.978 9.61 1.71.53-2.977zm-8.362-.222v-5.93h-3.025v5.93h3.025zm-1.512-7.442H23.43v3.025h3.96v-3.025zm-5.474 1.512v5.227h3.025v-5.227h-3.025zm1.78 3.738L16.9 62.183l-.534 2.978 6.797 1.218.534-2.977zm-5.552.27v-5.79H15.12v5.79h3.025zm-1.512-7.302h-4.008v3.025h4.008V56.37zm-5.52 1.513v5.086h3.024v-5.086h-3.024zm1.78 3.597l-9.75-1.758-.536 2.977 9.75 1.758.536-2.977zm-11.53-.27v4.22h3.025v-4.22H1.362zm1.247 5.71l9.75 1.734.53-2.978-9.75-1.734-.53 2.978zm8.503.245v4.711h3.024v-4.71h-3.024zm1.777 3.222l-9.75-1.734-.53 2.978 9.75 1.734.53-2.978zM1.363 70.14v4.171h3.025V70.14H1.362zm1.244 5.66l9.75 1.758.536-2.977-9.75-1.758-.536 2.977zm8.505.27v6.21h3.025v-6.21h-3.024zm1.513 7.723h4.008v-3.025h-4.008v3.025zm5.52-1.513v-5.508H15.12v5.508h3.025zm-1.78-4.019l6.798 1.219.534-2.978-6.797-1.218-.534 2.977zm5.552-.27v6.047h3.025v-6.047h-3.025zm1.513 7.56h3.96v-3.025h-3.96v3.025zm5.473-1.513v-5.344h-3.025v5.344h3.025zm-1.777-3.855l9.609 1.711.53-2.978-9.61-1.71-.53 2.977zm11.387.222V76.21h-3.026v4.195h3.026zm-1.248-5.684l-9.61-1.711-.53 2.978 9.61 1.711.53-2.978zm-8.362-.222v-4.71h-3.025v4.71h3.025zm-5.211-2.193l-6.797-1.195-.524 2.98 6.797 1.195.524-2.98zm-5.547.295V67.89H15.12v4.71h3.025zm-1.774-3.222l6.797 1.196.524-2.98-6.797-1.195-.524 2.98zm5.546-.294v4.71h3.025v-4.71h-3.025zm-11.87-37.664l.442 1.446h.004l-.446-1.446zm-4.242 2.203l-.97-1.16-.009.007-.008.007.987 1.146zM3.25 46.398l-1.394.587.002.005 1.392-.592zm2.555 3.47l.979-1.154h-.002l-.977 1.153zm4.242 2.226l.446-1.446h-.004l-.442 1.446zm19.805 0l.442 1.446.008-.002.008-.003-.458-1.441zm4.195-2.25l-.97-1.16-.009.006-.008.008.987 1.146zm0-16.242l-.978 1.154.008.006.97-1.16zm-4.195-2.18l-.442 1.446.008.003.434-1.45zm-8.649 14.883v1.512h3.013l-1.8-2.416-1.213.904zm-9.656-.282L11.22 47.5l.012.003.012.003.302-1.483zm-2.25-.914l.87-1.237-.008-.005-.007-.005-.855 1.247zm-1.219-1.382l1.36-.661-.003-.008-.004-.008-1.353.677zm-.094-3.704l1.393.591.01-.025.01-.025-1.413-.54zm.961-1.336l.96 1.17.013-.01.012-.011-.985-1.148zm2.203-1.054l.373 1.466.015-.004.015-.004-.403-1.458zm3.282-.422l1.213-.904-.468-.627-.782.019.037 1.512zm13.875.305l-.32 1.478.009.002.01.002.3-1.482zm2.273.867l.84-1.259-.009-.005-.83 1.264zm1.266 1.406l1.367-.646-.007-.015-.007-.015-1.353.676zm-1.5 5.438l-.764-1.306-.016.01-.015.009.795 1.287zM28.352 46l.319 1.478.013-.003.014-.003L28.352 46zm-2.743.305l-1.214.901.47.634.79-.024-.046-1.511zm-6.75-9.094v-1.513h-3.006l1.792 2.414 1.214-.901zm5.157-8.075h-8.157v3.025h8.157v-3.025zm-8.157 0c-2.317 0-4.41.27-6.258.84l.892 2.891c1.495-.461 3.277-.706 5.366-.706v-3.025zm-6.254.84c-1.845.563-3.448 1.384-4.77 2.488l1.94 2.322c.959-.802 2.184-1.45 3.714-1.918l-.884-2.893zm-4.787 2.503a10.88 10.88 0 00-2.962 4.075l2.788 1.173a7.857 7.857 0 012.148-2.956L4.818 32.48zm-2.962 4.075C1.189 38.141.87 39.892.87 41.781h3.025c0-1.548.26-2.89.75-4.054l-2.79-1.173zM.87 41.781c0 1.876.32 3.619.986 5.204l2.788-1.173c-.49-1.165-.749-2.5-.749-4.03H.87zm.988 5.21a10.72 10.72 0 002.969 4.03l1.955-2.308a7.697 7.697 0 01-2.14-2.907L1.858 46.99zm2.968 4.029c1.323 1.124 2.929 1.955 4.779 2.52l.884-2.893c-1.525-.466-2.747-1.12-3.705-1.933L4.826 51.02zM9.6 53.54c1.848.569 3.941.84 6.258.84v-3.025c-2.089 0-3.87-.245-5.366-.707L9.6 53.54zm6.258.84h8.157v-3.025h-8.157v3.025zm8.157 0c2.317 0 4.416-.271 6.278-.84l-.884-2.893c-1.514.463-3.305.708-5.394.708v3.025zm6.294-.845c1.831-.582 3.419-1.421 4.724-2.545l-1.974-2.292c-.945.813-2.154 1.474-3.667 1.954l.917 2.883zm4.707-2.53a10.577 10.577 0 003.002-4.067l-2.788-1.173a7.551 7.551 0 01-2.154 2.918l1.94 2.321zm3.002-4.067c.667-1.585.986-3.328.986-5.204H35.98c0 1.53-.26 2.866-.75 4.031l2.79 1.173zm.986-5.204c0-1.89-.319-3.64-.986-5.227L35.23 37.68c.489 1.163.749 2.507.749 4.054h3.025zm-.986-5.227a10.578 10.578 0 00-3.002-4.066l-1.94 2.321a7.551 7.551 0 012.154 2.918l2.788-1.172zm-2.994-4.06c-1.311-1.11-2.904-1.925-4.74-2.474l-.867 2.898c1.508.451 2.712 1.089 3.651 1.885l1.956-2.309zm-4.731-2.472c-1.862-.568-3.961-.84-6.278-.84v3.026c2.089 0 3.88.245 5.394.707l.884-2.893zm-9.09 14.817h-1.101v3.025h1.101v-3.025zm-1.102 0h-1.498v3.025h1.499v-3.025zm-1.5 0h-3.774v3.025h3.774v-3.025zm-3.774 0c-1.196 0-2.184-.089-2.98-.25l-.603 2.964c1.049.213 2.248.311 3.583.311v-3.025zm-2.956-.246c-.788-.173-1.336-.415-1.706-.674l-1.739 2.475c.787.553 1.74.921 2.794 1.154l.651-2.955zm-1.72-.684c-.35-.24-.573-.507-.713-.796l-2.721 1.321c.39.804.98 1.46 1.724 1.97l1.71-2.495zm-.721-.812c-.16-.32-.262-.73-.262-1.269H6.144c0 .93.179 1.817.581 2.622l2.706-1.353zm-.262-1.269c0-.487.08-.867.208-1.167l-2.785-1.181c-.31.731-.448 1.523-.448 2.348h3.025zm.228-1.217a1.65 1.65 0 01.508-.708l-1.92-2.337a4.672 4.672 0 00-1.413 1.964l2.825 1.08zm.533-.728c.322-.277.825-.543 1.591-.737l-.745-2.932c-1.078.274-2.044.711-2.815 1.372l1.969 2.297zm1.62-.745c.754-.208 1.717-.339 2.917-.368l-.074-3.024c-1.364.033-2.587.184-3.647.476l.805 2.916zm1.667-.977l6.773 9.094 2.426-1.807-6.773-9.094-2.426 1.807zm11.783.61c1.19 0 2.18.095 2.984.27l.641-2.957c-1.07-.231-2.284-.339-3.625-.339v3.025zm3.003.274c.791.16 1.354.392 1.744.648l1.662-2.527c-.797-.525-1.75-.871-2.803-1.086l-.603 2.965zm1.736.643c.36.24.597.515.752.825l2.706-1.353a5.14 5.14 0 00-1.78-1.989l-1.678 2.517zm.737.794c.155.327.254.748.254 1.3h3.025c0-.918-.167-1.794-.544-2.592l-2.735 1.292zm.254 1.3c0 .598-.117 1.028-.287 1.343l2.661 1.438c.455-.841.65-1.787.65-2.782H30.73zm-.287 1.343c-.165.304-.43.59-.863.843l1.528 2.61c.848-.495 1.535-1.163 1.996-2.015l-2.661-1.438zm-.894.862c-.357.22-.859.427-1.544.588l.693 2.944c.909-.214 1.735-.523 2.44-.959l-1.59-2.573zm-1.516.582c-.687.148-1.507.242-2.47.27l.092 3.024c1.1-.033 2.109-.142 3.015-.338l-.637-2.956zm-1.21.881l-6.75-9.093-2.428 1.802 6.75 9.094 2.429-1.803zm-7.964-6.68h1.056v-3.025H18.86v3.025zm1.055 0h1.127v-3.025h-1.125v3.025zm1.125 0H25v-3.025h-3.96v3.025zm-3.96-21.246h-1.513v1.512h1.512v-1.512zm5.062 0v1.512h1.512v-1.512H22.14zm.304-5.93l1.453.42.003-.009-1.456-.411zm.938-1.852l-1.156-.975-.008.009-.007.009 1.17.957zM29.359 8.5l-.555 1.407.016.006.017.006.522-1.419zm1.5.984l-1.108 1.03.02.02.019.02 1.07-1.07zm1.055 6.024l1.416.53.006-.015.006-.015-1.428-.5zm-.96 1.617l-1.127-1.01-.018.02-.018.022 1.162.968zm-1.407 1.078l.614 1.382.008-.003.007-.003-.63-1.376zm-1.828.375v-1.512h-1.513v1.512h1.513zm0 6.516h-1.513v1.512h1.513v-1.512zm4.312-.961l.704 1.339.007-.004.006-.003-.717-1.332zm3.024-2.602l-1.208-.91-.009.011 1.217.9zm1.828-3.68l1.45.43.003-.01.003-.01-1.456-.41zm-.07-8.976l1.448-.436-.003-.01-1.446.446zm-1.97-3.797l-1.184.94.009.011 1.176-.95zM22.61 2.992l-.832-1.263-.007.005-.006.004.845 1.254zm-1.804 1.735l1.197.924.005-.006.005-.007-1.207-.911zm-1.313 2.46l-1.363.656 1.563 3.25L20.915 7.7l-1.423-.513zM18.11 5.031l1.153-.98-.007-.008-.007-.008-1.139.996zM14.312 2.5l.45-1.444-.01-.003-.44 1.447zm-6.374.516l.619 1.38.01-.005.011-.005-.64-1.37zm-3.07 2.32L3.701 4.37l-.009.011 1.174.954zm-1.829 3.61l1.449.434.002-.007.002-.008-1.453-.42zm.047 9.023l-1.435.478.002.005 1.433-.483zm1.898 3.515l-1.174.954.01.011 1.164-.965zm2.954 2.368L7.253 25.2l.007.003.008.004.668-1.356zm3.796.843v1.513h1.513v-1.513h-1.513zm0-6.515h1.513v-1.513h-1.513v1.513zm-2.976-1.407l-1.173.956.004.005 1.169-.96zm-.797-1.476l-1.439.466.004.012 1.435-.478zm.047-3.938l1.42.523.003-.012-1.423-.51zm.914-1.5L7.874 8.77l-.011.01-.01.01 1.069 1.07zm1.453-.867l.478 1.435.025-.008.024-.009-.527-1.418zm3.75 0l-.49 1.431.012.004.011.004.467-1.439zm1.477.867l-1.049 1.09.018.018.019.017 1.012-1.125zm1.101 1.664l1.418-.527-.004-.009-.003-.009-1.41.545zm.375 7.466h5.063v-3.025h-5.063v3.025zm6.575-1.512v-3.54h-3.025v3.54h3.025zm0-3.54c0-.778.09-1.43.245-1.97l-2.906-.84c-.25.865-.364 1.807-.364 2.81h3.025zm.248-1.979c.153-.543.377-.968.652-1.305l-2.34-1.915c-.57.694-.97 1.503-1.223 2.398l2.91.822zm.638-1.287c.25-.297.581-.541 1.028-.722l-1.134-2.804a5.584 5.584 0 00-2.206 1.575l2.312 1.95zm1.028-.722c.431-.174 1.017-.288 1.8-.288V6.636c-1.06 0-2.053.152-2.934.509l1.134 2.804zm1.8-.288c.573 0 1.045.091 1.437.246l1.11-2.814c-.794-.314-1.65-.457-2.547-.457V9.66zm1.47.258c.384.142.68.342.914.595l2.217-2.059a5.32 5.32 0 00-2.086-1.374l-1.046 2.838zm.953.635c.275.275.505.635.672 1.116l2.857-.996a5.91 5.91 0 00-1.39-2.26l-2.14 2.14zm.672 1.116c.17.485.268 1.07.268 1.775h3.025c0-.982-.137-1.913-.436-2.771l-2.857.996zm.268 1.775c0 .602-.088 1.118-.244 1.563l2.856 1a7.716 7.716 0 00.413-2.563H30.73zm-.232 1.532a3.54 3.54 0 01-.671 1.138l2.252 2.02a6.56 6.56 0 001.251-2.096l-2.832-1.062zm-.707 1.18a2.433 2.433 0 01-.873.67l1.258 2.752a5.459 5.459 0 001.94-1.486l-2.325-1.936zm-.858.664a2.94 2.94 0 01-1.214.245v3.025c.853 0 1.674-.164 2.442-.506l-1.228-2.764zm-2.727 1.757v6.516h3.025v-6.516h-3.025zm1.513 8.028c1.852 0 3.54-.359 5.016-1.134l-1.407-2.678c-.962.506-2.149.787-3.61.787v3.025zm5.03-1.142a10.537 10.537 0 003.522-3.034l-2.433-1.798a7.513 7.513 0 01-2.524 2.17l1.434 2.663zm3.514-3.022a12.948 12.948 0 002.07-4.162l-2.9-.857a9.925 9.925 0 01-1.586 3.198l2.416 1.82zm2.076-4.181c.428-1.525.642-3.084.642-4.675h-3.025c0 1.316-.176 2.6-.53 3.856l2.913.819zm.642-4.675c0-1.819-.236-3.538-.72-5.147l-2.897.872c.39 1.297.592 2.719.592 4.275h3.025zm-.723-5.157c-.503-1.63-1.244-3.072-2.238-4.302l-2.352 1.902c.724.896 1.296 1.984 1.7 3.292l2.89-.892zm-2.23-4.291a10.487 10.487 0 00-3.662-2.927L31.04 3.93a7.463 7.463 0 012.62 2.089l2.368-1.881zM32.366 1.21C30.88.487 29.227.144 27.438.144v3.025c1.397 0 2.587.266 3.602.76l1.326-2.718zM27.438.144c-1.03 0-2.022.124-2.972.38l.787 2.92a8.367 8.367 0 012.184-.275V.144zm-2.972.38a9.207 9.207 0 00-2.689 1.205l1.665 2.526a6.183 6.183 0 011.81-.81L24.467.524zm-2.702 1.214a9.08 9.08 0 00-2.166 2.077l2.414 1.823a6.058 6.058 0 011.443-1.392l-1.691-2.508zm-2.156 2.064c-.642.83-1.15 1.795-1.539 2.872l2.846 1.027c.299-.83.666-1.505 1.087-2.05l-2.394-1.85zm1.247 2.73a11.505 11.505 0 00-1.593-2.48L16.957 6.01c.44.517.832 1.125 1.172 1.832l2.726-1.31zm-1.607-2.497a10.313 10.313 0 00-2.088-1.837l-1.664 2.526a7.3 7.3 0 011.475 1.303l2.277-1.992zM17.16 2.198a9.456 9.456 0 00-2.398-1.142l-.899 2.888a6.432 6.432 0 011.633.78l1.664-2.526zm-2.407-1.145a8.961 8.961 0 00-2.62-.394v3.025c.582 0 1.16.087 1.74.263l.88-2.894zm-2.62-.394c-1.772 0-3.396.313-4.836.986l1.281 2.74c.967-.451 2.139-.7 3.555-.7V.658zm-4.815.977A9.893 9.893 0 003.702 4.37l2.33 1.93a6.869 6.869 0 012.525-1.905l-1.239-2.76zM3.693 4.382C2.737 5.56 2.041 6.951 1.586 8.526l2.906.84c.358-1.239.88-2.254 1.55-3.076l-2.35-1.908zM1.59 8.511c-.47 1.566-.696 3.262-.696 5.075h3.025c0-1.562.195-2.96.569-4.206L1.59 8.51zm-.696 5.075c0 1.71.248 3.334.757 4.861l2.87-.956c-.397-1.192-.602-2.49-.602-3.905H.894zm.759 4.866c.505 1.498 1.22 2.833 2.158 3.986l2.347-1.907c-.688-.847-1.238-1.856-1.639-3.046l-2.866.967zm2.166 3.997a10.713 10.713 0 003.435 2.752l1.367-2.698A7.688 7.688 0 016.15 20.52l-2.33 1.93zm3.45 2.76c1.367.674 2.865.999 4.465.999v-3.025c-1.18 0-2.214-.237-3.128-.688L7.27 25.208zm5.978-.514V18.18h-3.025v6.515h3.025zm-1.513-8.028c-.418 0-.744-.082-1.01-.215L9.37 19.157a5.23 5.23 0 002.364.535v-3.025zm-1.01-.215a2.41 2.41 0 01-.797-.639l-2.338 1.92c.492.6 1.09 1.078 1.781 1.424l1.353-2.705zm-.794-.634a3.12 3.12 0 01-.534-1l-2.87.957c.24.72.59 1.378 1.06 1.954l2.344-1.911zm-.53-.988a4.457 4.457 0 01-.208-1.385H6.167c0 .802.115 1.578.355 2.319L9.4 14.83zm-.208-1.385c0-.662.092-1.174.235-1.563L6.59 10.836c-.295.799-.422 1.678-.422 2.61h3.025zm.24-1.575c.156-.435.351-.733.56-.941l-2.14-2.14c-.573.574-.986 1.276-1.268 2.06l2.847 1.021zm.538-.92c.236-.227.523-.403.883-.523l-.956-2.87A5.31 5.31 0 007.874 8.77l2.096 2.18zm.932-.54c.355-.132.782-.21 1.301-.21V7.175c-.825 0-1.616.125-2.355.4l1.054 2.835zm1.301-.21c.537 0 1.01.079 1.432.223l.98-2.862a7.41 7.41 0 00-2.412-.386V10.2zm1.455.23c.378.123.667.3.895.52l2.097-2.18a5.287 5.287 0 00-2.058-1.217l-.934 2.878zm.932.554c.264.238.508.581.702 1.085l2.822-1.09c-.337-.872-.828-1.638-1.5-2.244l-2.024 2.249zm.696 1.067c.17.46.28 1.077.28 1.886h3.025c0-1.065-.142-2.057-.47-2.941l-2.835 1.055zm.28 1.886v3.54h3.025v-3.54h-3.025z" fill="#ECB02B"/></svg>