<svg width="26" height="24" fill="none" xmlns="http://www.w3.org/2000/svg"><path d="M24.541 7.734h-2.627L18.257.827a.764.764 0 10-1.35.714l3.28 6.193H5.808l3.279-6.193a.764.764 0 00-1.35-.714L4.081 7.734H1.46A1.46 1.46 0 000 9.193v1.696c0 .77.6 1.403 1.358 1.455l2.562 10.65c.082.343.39.585.742.585h16.67c.354 0 .66-.241.743-.584l2.568-10.651A1.46 1.46 0 0026 10.889V9.193a1.46 1.46 0 00-1.459-1.459zM1.527 9.261h22.946v1.56H1.527V9.26zm20.559 7.173h-3.343l.51-4.086h3.818l-.985 4.086zm-8.321 5.618v-4.091h3.248l-.511 4.091h-2.737zm-4.265 0l-.511-4.091h3.248v4.091H9.5zm-6.57-9.704h3.818l.51 4.086H3.914l-.983-4.086zm5.357 0h3.95v4.086h-3.44l-.51-4.086zm5.478 4.086v-4.086h3.949l-.51 4.086h-3.44zM4.28 17.96h3.17l.51 4.091H5.265l-.984-4.091zm16.451 4.091h-2.69l.51-4.091h3.167l-.987 4.091z" fill="#66BD36"/></svg>