<svg width="128" height="128" fill="none" xmlns="http://www.w3.org/2000/svg"><g clip-path="url(#clip0)"><path d="M91.553 40.597L74.7 57.45l6.525 6.525 16.853-16.852-6.525-6.526zM57.455 74.73L40.602 91.584l6.525 6.526L63.98 81.256l-6.525-6.525zm23.373-44.8L63.975 46.783l6.525 6.525 16.853-16.853-6.525-6.525zM46.777 64.017L29.924 80.87l6.525 6.525 16.853-16.853-6.525-6.525zm-10.365-23.42l-6.525 6.525L46.74 63.975l6.525-6.525-16.853-16.853zm10.715-10.679L40.6 36.444l16.853 16.853 6.526-6.526-16.853-16.853zM81.215 63.97l-6.526 6.525 16.854 16.853 6.525-6.525L81.215 63.97zM70.547 74.695l-6.525 6.525 16.853 16.853 6.525-6.525-16.853-16.853z" fill="#F13C6E"/><path d="M87.37 104.631l-6.507-6.507L64 114.989 47.137 98.124l-6.506 6.507L64 128l23.37-23.369zM29.875 47.137L23.37 40.63 0 64l23.37 23.37 6.505-6.507L13.012 64l16.863-16.863zm74.756-6.507l-6.507 6.507L114.989 64 98.124 80.863l6.507 6.506L128 64l-23.369-23.37zM80.863 29.875l6.506-6.506L64 0 40.63 23.37l6.507 6.505L64 13.012l16.863 16.863z" fill="#EFEFEF"/></g><defs><clipPath id="clip0"><path fill="#fff" d="M0 0h128v128H0z"/></clipPath></defs></svg>