<svg width="41" height="40" fill="none" xmlns="http://www.w3.org/2000/svg"><circle cx="20.287" cy="20" r="20" fill="#fff"/><g clip-path="url(#clip0)"><path d="M27.967 22.693c-.37-.467-.264-.675 0-1.092.004-.005 3.055-4.22 3.37-5.65h.001c.156-.521 0-.904-.755-.904h-2.5c-.635 0-.929.329-1.086.696 0 0-1.272 3.046-3.072 5.02-.581.57-.85.753-1.167.753-.156 0-.399-.182-.399-.703V15.95c0-.625-.178-.904-.705-.904h-3.93c-.398 0-.635.291-.635.563 0 .592.9.728.993 2.395v3.616c0 .793-.144.938-.463.938-.85 0-2.911-3.058-4.133-6.558-.247-.679-.488-.953-1.129-.953h-2.5c-.713 0-.857.329-.857.696 0 .65.85 3.88 3.95 8.146 2.067 2.912 4.978 4.49 7.625 4.49 1.592 0 1.786-.35 1.786-.953 0-2.783-.144-3.046.653-3.046.37 0 1.006.183 2.492 1.588 1.698 1.666 1.977 2.411 2.927 2.411h2.5c.712 0 1.073-.35.865-1.042-.475-1.454-3.687-4.445-3.831-4.645z" fill="#66BD36"/></g><defs><clipPath id="clip0"><path fill="#fff" transform="translate(9 10.285)" d="M0 0h22.857v22.857H0z"/></clipPath></defs></svg>