<svg width="41" height="40" fill="none" xmlns="http://www.w3.org/2000/svg"><circle cx="20.43" cy="20" r="20" fill="#fff"/><g clip-path="url(#clip0)"><path d="M16.256 24.744l-.378 5.318c.54 0 .775-.233 1.056-.512l2.536-2.423 5.255 3.848c.964.537 1.643.254 1.903-.887l3.45-16.163v-.001c.306-1.425-.514-1.982-1.454-1.633L8.348 20.054c-1.384.537-1.363 1.309-.235 1.658l5.184 1.613 12.04-7.535c.567-.375 1.083-.167.659.208l-9.74 8.746z" fill="#66BD36"/></g><defs><clipPath id="clip0"><path fill="#fff" transform="translate(7.287 10.286)" d="M0 0h22.857v22.857H0z"/></clipPath></defs></svg>