<svg width="40" height="40" fill="none" xmlns="http://www.w3.org/2000/svg"><circle cx="20" cy="20" r="20" fill="#fff"/><path d="M27.777 9H12.223A3.226 3.226 0 009 12.223v15.554A3.226 3.226 0 0012.223 31h15.554A3.226 3.226 0 0031 27.777V12.223A3.226 3.226 0 0027.777 9zm-7.734 16.758a5.807 5.807 0 01-5.8-5.801c0-3.199 2.601-5.8 5.8-5.8s5.8 2.601 5.8 5.8-2.601 5.8-5.8 5.8zm6.445-10.313a1.936 1.936 0 01-1.933-1.933c0-1.066.867-1.934 1.933-1.934s1.934.868 1.934 1.934a1.936 1.936 0 01-1.934 1.933z" fill="#66BD36"/><path d="M26.488 12.867a.645.645 0 10.001 1.29.645.645 0 000-1.29zm-6.445 2.578a4.517 4.517 0 00-4.512 4.512 4.517 4.517 0 004.512 4.512 4.517 4.517 0 004.512-4.512 4.517 4.517 0 00-4.512-4.512z" fill="#66BD36"/></svg>