<svg width="232" height="163" viewBox="0 0 232 163" fill="none" xmlns="http://www.w3.org/2000/svg">
<path d="M28.4844 44.9688L31.0546 43.4215L28.9783 39.9726L26.2669 42.9481L28.4844 44.9688ZM45.3594 73L42.7892 74.5473L43.6637 76H45.3594V73ZM61.0156 73V76H66.4312L63.5589 71.4089L61.0156 73ZM37.2031 34.9375L34.8156 33.1209L33.5602 34.7709L34.6598 36.5286L37.2031 34.9375ZM60.1719 4.75L62.5594 6.56657L66.2241 1.75H60.1719V4.75ZM44.0469 4.75V1.75H42.5151L41.6168 2.99081L44.0469 4.75ZM27.4531 27.6719L29.8628 29.4589L29.8731 29.445L29.8832 29.4311L27.4531 27.6719ZM21.2656 36.0156H18.2656V45.0975L23.6753 37.8026L21.2656 36.0156ZM21.2656 4.75H24.2656V1.75H21.2656V4.75ZM8.04688 4.75V1.75H5.04688V4.75H8.04688ZM8.04688 73H5.04688V76H8.04688V73ZM21.2656 73V76H24.2656V73H21.2656ZM21.2656 52.8906L19.0482 50.87L18.2656 51.7288V52.8906H21.2656ZM25.9142 46.516L42.7892 74.5473L47.9296 71.4527L31.0546 43.4215L25.9142 46.516ZM45.3594 76H61.0156V70H45.3594V76ZM63.5589 71.4089L39.7464 33.3464L34.6598 36.5286L58.4723 74.5911L63.5589 71.4089ZM39.5906 36.7541L62.5594 6.56657L57.7844 2.93343L34.8156 33.1209L39.5906 36.7541ZM60.1719 1.75H44.0469V7.75H60.1719V1.75ZM41.6168 2.99081L25.0231 25.9127L29.8832 29.4311L46.4769 6.50919L41.6168 2.99081ZM25.0434 25.8849L18.8559 34.2286L23.6753 37.8026L29.8628 29.4589L25.0434 25.8849ZM24.2656 36.0156V4.75H18.2656V36.0156H24.2656ZM21.2656 1.75H8.04688V7.75H21.2656V1.75ZM5.04688 4.75V73H11.0469V4.75H5.04688ZM8.04688 76H21.2656V70H8.04688V76ZM24.2656 73V52.8906H18.2656V73H24.2656ZM23.4831 54.9113L30.7018 46.9894L26.2669 42.9481L19.0482 50.87L23.4831 54.9113ZM111.266 4.75L114.266 4.74689L114.263 1.75H111.266V4.75ZM98.1875 4.75V1.75H95.1906L95.1875 4.74689L98.1875 4.75ZM98.1406 49.9844L101.14 50.0266L101.141 50.0071L101.141 49.9875L98.1406 49.9844ZM95.4688 60.0625L93.1007 58.2207L93.0803 58.2469L93.0605 58.2735L95.4688 60.0625ZM92.375 62.5469L93.5738 65.297L93.59 65.2899L93.6061 65.2826L92.375 62.5469ZM84.2656 62.5938L82.9846 65.3065L83.0157 65.3212L83.0472 65.3352L84.2656 62.5938ZM81.4062 60.25L79.0062 62.05L79.0106 62.0558L79.015 62.0616L81.4062 60.25ZM79.4844 55.9844L76.5648 56.6744L76.5707 56.6995L76.5771 56.7244L79.4844 55.9844ZM78.8281 49.9844L75.8281 49.9875L75.8281 50.0065L75.8284 50.0255L78.8281 49.9844ZM78.7812 4.75L81.7812 4.74689L81.7781 1.75H78.7812V4.75ZM65.6094 4.75V1.75H62.6125L62.6094 4.74689L65.6094 4.75ZM65.5625 49.9844L62.5625 49.9813V49.9844H65.5625ZM67.1562 60.2031L64.3284 61.2047L64.3347 61.2225L64.3412 61.2402L67.1562 60.2031ZM78.8281 72.3438L77.7469 75.1422L77.7575 75.1462L78.8281 72.3438ZM97.9062 72.3438L96.8663 69.5297L96.8563 69.5335L97.9062 72.3438ZM105.219 67.6562L107.372 69.7447L107.373 69.7442L105.219 67.6562ZM109.719 60.1562L106.894 59.1454L106.889 59.1586L106.885 59.1718L109.719 60.1562ZM111.312 49.9844H114.312V49.9813L111.312 49.9844ZM111.266 1.75H98.1875V7.75H111.266V1.75ZM95.1875 4.74689L95.1406 49.9813L101.141 49.9875L101.188 4.75311L95.1875 4.74689ZM95.1409 49.9421C95.1122 51.9827 94.8971 53.6885 94.5335 55.0909L100.341 56.5966C100.853 54.624 101.107 52.4235 101.14 50.0266L95.1409 49.9421ZM94.5335 55.0909C94.1763 56.4687 93.6754 57.4818 93.1007 58.2207L97.8368 61.9043C99.0121 60.3932 99.8237 58.5938 100.341 56.5966L94.5335 55.0909ZM93.0605 58.2735C92.5551 58.9538 91.9301 59.4573 91.1439 59.8111L93.6061 65.2826C95.3199 64.5114 96.7574 63.3587 97.877 61.8515L93.0605 58.2735ZM91.1762 59.7968C90.403 60.1338 89.4179 60.3438 88.1562 60.3438V66.3438C90.0821 66.3438 91.9095 66.0224 93.5738 65.297L91.1762 59.7968ZM88.1562 60.3438C87.0275 60.3438 86.1588 60.1522 85.484 59.8523L83.0472 65.3352C84.6225 66.0353 86.3475 66.3438 88.1562 66.3438V60.3438ZM85.5466 59.881C84.8767 59.5646 84.2988 59.1001 83.7975 58.4384L79.015 62.0616C80.0762 63.4624 81.4046 64.5604 82.9846 65.3065L85.5466 59.881ZM83.8063 58.45C83.253 57.7123 82.7561 56.6762 82.3917 55.2443L76.5771 56.7244C77.0876 58.73 77.872 60.5377 79.0062 62.05L83.8063 58.45ZM82.4039 55.2943C82.0601 53.8395 81.8569 52.0657 81.8278 49.9433L75.8284 50.0255C75.8618 52.4656 76.0962 54.6918 76.5648 56.6744L82.4039 55.2943ZM81.8281 49.9813L81.7812 4.74689L75.7812 4.75311L75.8281 49.9875L81.8281 49.9813ZM78.7812 1.75H65.6094V7.75H78.7812V1.75ZM62.6094 4.74689L62.5625 49.9813L68.5625 49.9875L68.6094 4.75311L62.6094 4.74689ZM62.5625 49.9844C62.5625 54.0725 63.1319 57.8265 64.3284 61.2047L69.9841 59.2016C69.0556 56.5797 68.5625 53.5213 68.5625 49.9844H62.5625ZM64.3412 61.2402C65.5624 64.5549 67.3032 67.4257 69.5958 69.791L73.9042 65.6152C72.2593 63.9181 70.9376 61.7889 69.9713 59.166L64.3412 61.2402ZM69.5958 69.791C71.8794 72.1471 74.6096 73.93 77.7469 75.1421L79.9093 69.5454C77.5467 68.6325 75.5581 67.3216 73.9042 65.6152L69.5958 69.791ZM77.7575 75.1462C80.9291 76.3578 84.4086 76.9375 88.1562 76.9375V70.9375C85.0289 70.9375 82.2897 70.4547 79.8987 69.5413L77.7575 75.1462ZM88.1562 76.9375C92.0998 76.9375 95.7158 76.3647 98.9562 75.154L96.8563 69.5335C94.4092 70.4478 91.5252 70.9375 88.1562 70.9375V76.9375ZM98.9462 75.1577C102.213 73.9503 105.039 72.1506 107.372 69.7447L103.065 65.5678C101.398 67.2869 99.3492 68.6122 96.8663 69.5298L98.9462 75.1577ZM107.373 69.7442C109.678 67.3657 111.394 64.4762 112.553 61.1407L106.885 59.1718C105.981 61.7738 104.697 63.8843 103.065 65.5683L107.373 69.7442ZM112.543 61.1671C113.743 57.8142 114.312 54.0716 114.312 49.9844H108.312C108.312 53.5222 107.819 56.5608 106.894 59.1454L112.543 61.1671ZM114.312 49.9813L114.266 4.74689L108.266 4.75311L108.312 49.9875L114.312 49.9813ZM139.625 4.75L142.534 4.01614L141.962 1.75H139.625V4.75ZM123.266 4.75V1.75H120.266V4.75H123.266ZM123.266 73H120.266V76H123.266V73ZM135.359 73V76H138.359V73H135.359ZM135.359 52.7969H138.359V52.7694L138.359 52.7418L135.359 52.7969ZM134.797 22.1406L137.684 21.3247L131.797 22.1957L134.797 22.1406ZM142.812 50.5L139.926 51.316L140.543 53.5H142.812V50.5ZM149.328 50.5V53.5H151.555L152.2 51.3679L149.328 50.5ZM158.281 20.875L161.281 20.9279L155.41 20.0071L158.281 20.875ZM157.719 52.7969L154.719 52.744L154.719 52.7704V52.7969H157.719ZM157.719 73H154.719V76H157.719V73ZM169.812 73V76H172.812V73H169.812ZM169.812 4.75H172.812V1.75H169.812V4.75ZM153.453 4.75V1.75H151.193L150.57 3.92236L153.453 4.75ZM146.094 30.3906L143.185 31.1245L145.907 41.9149L148.977 31.2183L146.094 30.3906ZM139.625 1.75H123.266V7.75H139.625V1.75ZM120.266 4.75V73H126.266V4.75H120.266ZM123.266 76H135.359V70H123.266V76ZM138.359 73V52.7969H132.359V73H138.359ZM138.359 52.7418L137.796 22.0856L131.797 22.1957L132.36 52.8519L138.359 52.7418ZM131.91 22.9566L139.926 51.316L145.699 49.684L137.684 21.3247L131.91 22.9566ZM142.812 53.5H149.328V47.5H142.812V53.5ZM152.2 51.3679L161.153 21.7429L155.41 20.0071L146.456 49.6321L152.2 51.3679ZM155.282 20.8221L154.719 52.744L160.718 52.8497L161.281 20.9279L155.282 20.8221ZM154.719 52.7969V73H160.719V52.7969H154.719ZM157.719 76H169.812V70H157.719V76ZM172.812 73V4.75H166.812V73H172.812ZM169.812 1.75H153.453V7.75H169.812V1.75ZM150.57 3.92236L143.21 29.563L148.977 31.2183L156.337 5.57764L150.57 3.92236ZM149.003 29.6568L142.534 4.01614L136.716 5.48386L143.185 31.1245L149.003 29.6568ZM227.844 25.1875L224.905 25.7887L224.908 25.8047L224.911 25.8206L227.844 25.1875ZM225.359 17.5938L228.071 16.3111L228.061 16.2898L228.051 16.2687L225.359 17.5938ZM221.75 12.0156L219.424 13.9106L219.435 13.9235L219.445 13.9362L221.75 12.0156ZM216.922 7.70312L215.238 10.1863L215.268 10.2061L215.297 10.2253L216.922 7.70312ZM210.688 4.84375L209.822 7.71614L209.845 7.72316L209.868 7.72979L210.688 4.84375ZM190.109 7.60938L188.415 5.13344L188.406 5.13974L190.109 7.60938ZM185.281 12.1094L182.943 10.2302L182.932 10.243L182.922 10.2559L185.281 12.1094ZM181.766 17.9688L179.029 16.7393L179.024 16.7518L179.018 16.7643L181.766 17.9688ZM179.469 25.4219L176.526 24.8401L176.522 24.8566L176.519 24.8732L179.469 25.4219ZM179.375 51.9062L176.419 52.4172L176.422 52.4349L176.425 52.4525L179.375 51.9062ZM181.391 58.9375L178.611 60.0656L178.614 60.0745L178.618 60.0835L181.391 58.9375ZM185 65.2656L182.619 67.0909L182.627 67.1006L182.634 67.1102L185 65.2656ZM189.875 70L188.115 72.4298L188.153 72.4571L188.192 72.4831L189.875 70ZM210.359 73L209.574 70.1048L209.549 70.1115L209.524 70.1186L210.359 73ZM216.359 70.4688L217.909 73.0373L217.929 73.0252L217.949 73.0127L216.359 70.4688ZM225.641 59.5938L228.353 60.8748L228.368 60.8436L228.382 60.8122L225.641 59.5938ZM227.938 52.2812L230.878 52.8763L230.879 52.8696L227.938 52.2812ZM215.094 48.7656L212.115 48.4082L212.112 48.4376L212.109 48.4671L215.094 48.7656ZM214.344 53.0781L211.442 52.318L211.44 52.3252L214.344 53.0781ZM212.562 57.625L209.943 56.1629L209.937 56.1735L209.931 56.1841L212.562 57.625ZM209.891 60.9062L207.984 58.5905L207.964 58.6063L207.945 58.6225L209.891 60.9062ZM199.672 62.5L198.6 65.3022L198.614 65.3073L198.627 65.3123L199.672 62.5ZM196.812 60.7656L194.768 62.9613L194.794 62.9849L194.819 63.0079L196.812 60.7656ZM194.422 57.4844L191.714 58.7766L191.732 58.8139L191.751 58.8508L194.422 57.4844ZM192.922 52.9375L195.859 52.3279L195.85 52.2851L195.84 52.2426L192.922 52.9375ZM192.266 28.8438L189.28 28.551L189.277 28.5801L189.275 28.6092L192.266 28.8438ZM192.969 24.4375L195.891 25.117L195.891 25.1159L192.969 24.4375ZM194.656 19.8438L192.052 18.3553L192.038 18.379L192.025 18.4028L194.656 19.8438ZM197.375 16.5625L195.56 14.174L195.513 14.2095L195.468 14.2467L197.375 16.5625ZM200 15.2031L199.105 12.3397L199.092 12.3438L199.079 12.348L200 15.2031ZM206.797 15.25L205.848 18.0961L205.861 18.1002L205.873 18.1043L206.797 15.25ZM209.656 16.7031L211.522 14.3538L211.482 14.3225L211.442 14.2925L209.656 16.7031ZM212.422 19.9844L209.828 21.4922L209.836 21.5056L209.844 21.5188L212.422 19.9844ZM214.297 24.4844L211.406 25.2873L211.407 25.2908L214.297 24.4844ZM215.094 28.8906L212.108 29.1833L212.111 29.2157L212.115 29.2481L215.094 28.8906ZM231.734 43.8906V33.9531H225.734V43.8906H231.734ZM231.734 33.9531C231.734 30.6674 231.419 27.5319 230.776 24.5544L224.911 25.8206C225.456 28.3431 225.734 31.0514 225.734 33.9531H231.734ZM230.783 24.5863C230.177 21.6235 229.277 18.8607 228.071 16.3111L222.647 18.8764C223.629 20.9518 224.386 23.2515 224.905 25.7887L230.783 24.5863ZM228.051 16.2687C226.949 14.0309 225.618 11.9706 224.055 10.0951L219.445 13.9362C220.695 15.4357 221.77 17.0941 222.668 18.9188L228.051 16.2687ZM224.076 10.1206C222.5 8.18663 220.653 6.53804 218.546 5.18098L215.297 10.2253C216.878 11.2432 218.25 12.4696 219.424 13.9106L224.076 10.1206ZM218.605 5.22C216.477 3.77679 214.102 2.6944 211.507 1.95771L209.868 7.72979C211.898 8.3056 213.68 9.12946 215.238 10.1863L218.605 5.22ZM211.553 1.97136C208.964 1.19112 206.217 0.8125 203.328 0.8125V6.8125C205.689 6.8125 207.848 7.12138 209.822 7.71614L211.553 1.97136ZM203.328 0.8125C200.481 0.8125 197.785 1.17292 195.258 1.92007L196.96 7.67368C198.872 7.10833 200.988 6.8125 203.328 6.8125V0.8125ZM195.258 1.92007C192.761 2.65873 190.473 3.72559 188.415 5.13345L191.803 10.0853C193.308 9.05566 195.02 8.24752 196.96 7.67368L195.258 1.92007ZM188.406 5.13974C186.35 6.55799 184.527 8.25814 182.943 10.2302L187.62 13.9885C188.848 12.4606 190.244 11.1608 191.813 10.079L188.406 5.13974ZM182.922 10.2559C181.387 12.2093 180.092 14.3742 179.029 16.7393L184.502 19.1982C185.377 17.2508 186.425 15.5094 187.64 13.9628L182.922 10.2559ZM179.018 16.7643C177.922 19.2641 177.095 21.9596 176.526 24.8401L182.412 26.0036C182.905 23.5092 183.609 21.2359 184.513 19.1732L179.018 16.7643ZM176.519 24.8732C175.983 27.7581 175.719 30.7867 175.719 33.9531H181.719C181.719 31.1196 181.955 28.4606 182.418 25.9706L176.519 24.8732ZM175.719 33.9531V43.8906H181.719V33.9531H175.719ZM175.719 43.8906C175.719 46.8584 175.95 49.7022 176.419 52.4172L182.331 51.3953C181.925 49.0478 181.719 46.5478 181.719 43.8906H175.719ZM176.425 52.4525C176.927 55.1622 177.652 57.703 178.611 60.0656L184.17 57.8094C183.379 55.8595 182.761 53.7128 182.325 51.36L176.425 52.4525ZM178.618 60.0835C179.68 62.6521 181.011 64.9929 182.619 67.0909L187.381 63.4403C186.114 61.7883 185.039 59.9104 184.163 57.7915L178.618 60.0835ZM182.634 67.1102C184.237 69.1666 186.064 70.9445 188.115 72.4298L191.635 67.5702C190.061 66.4305 188.638 65.0521 187.366 63.421L182.634 67.1102ZM188.192 72.4831C190.297 73.9106 192.618 75.0051 195.139 75.7753L196.892 70.0372C194.913 69.4324 193.14 68.5894 191.558 67.5169L188.192 72.4831ZM195.139 75.7753C197.707 76.56 200.459 76.9375 203.375 76.9375V70.9375C200.978 70.9375 198.824 70.6275 196.892 70.0372L195.139 75.7753ZM203.375 76.9375C206.126 76.9375 208.738 76.5934 211.195 75.8814L209.524 70.1186C207.668 70.6566 205.624 70.9375 203.375 70.9375V76.9375ZM211.145 75.8952C213.582 75.2337 215.842 74.2847 217.909 73.0373L214.809 67.9002C213.251 68.8403 211.511 69.5788 209.574 70.1048L211.145 75.8952ZM217.949 73.0127C220.228 71.5883 222.249 69.8126 224.008 67.7018L219.398 63.8607C218.032 65.4999 216.49 66.8492 214.769 67.9248L217.949 73.0127ZM224.008 67.7018C225.736 65.628 227.185 63.3499 228.353 60.8748L222.928 58.3127C221.972 60.3376 220.795 62.1845 219.398 63.8607L224.008 67.7018ZM228.382 60.8122C229.478 58.3457 230.307 55.6972 230.878 52.8763L224.997 51.6862C224.505 54.1153 223.803 56.3418 222.899 58.3753L228.382 60.8122ZM230.879 52.8696C231.452 50.0041 231.734 47.0092 231.734 43.8906H225.734C225.734 46.647 225.485 49.2459 224.996 51.6929L230.879 52.8696ZM212.375 33.8594V43.8906H218.375V33.8594H212.375ZM212.375 43.8906C212.375 45.4672 212.287 46.9725 212.115 48.4082L218.072 49.1231C218.275 47.4338 218.375 45.6891 218.375 43.8906H212.375ZM212.109 48.4671C211.966 49.8975 211.74 51.1784 211.442 52.318L217.246 53.8382C217.635 52.3529 217.909 50.7588 218.079 49.0641L212.109 48.4671ZM211.44 52.3252C211.058 53.7974 210.553 55.0697 209.943 56.1629L215.182 59.0871C216.072 57.4928 216.754 55.7339 217.248 53.831L211.44 52.3252ZM209.931 56.1841C209.38 57.1909 208.726 57.9787 207.984 58.5905L211.798 63.222C213.18 62.0838 214.308 60.6841 215.194 59.0659L209.931 56.1841ZM207.945 58.6225C207.4 59.0867 206.765 59.4508 206.011 59.709L207.957 65.3847C209.392 64.893 210.693 64.1633 211.836 63.19L207.945 58.6225ZM206.011 59.709C205.27 59.9632 204.401 60.1094 203.375 60.1094V66.1094C204.974 66.1094 206.511 65.8805 207.957 65.3847L206.011 59.709ZM203.375 60.1094C202.294 60.1094 201.422 59.9498 200.716 59.6877L198.627 65.3123C200.109 65.8627 201.706 66.1094 203.375 66.1094V60.1094ZM200.743 59.6978C200.017 59.42 199.376 59.0307 198.806 58.5234L194.819 63.0079C195.936 64.0005 197.202 64.7675 198.6 65.3022L200.743 59.6978ZM198.857 58.5699C198.255 58.0097 197.655 57.2168 197.093 56.1179L191.751 58.8508C192.564 60.4395 193.557 61.834 194.768 62.9613L198.857 58.5699ZM197.129 56.1922C196.588 55.057 196.159 53.7738 195.859 52.3279L189.984 53.5471C190.372 55.4137 190.944 57.1617 191.714 58.7766L197.129 56.1922ZM195.84 52.2426C195.568 51.097 195.37 49.8276 195.256 48.4278L189.276 48.916C189.411 50.5786 189.651 52.153 190.003 53.6324L195.84 52.2426ZM195.256 48.4278C195.138 46.9837 195.078 45.4717 195.078 43.8906H189.078C189.078 45.6221 189.143 47.2975 189.276 48.916L195.256 48.4278ZM195.078 43.8906V33.8594H189.078V43.8906H195.078ZM195.078 33.8594C195.078 32.1804 195.138 30.5871 195.256 29.0783L189.275 28.6092C189.143 30.2879 189.078 32.0383 189.078 33.8594H195.078ZM195.251 29.1365C195.397 27.6527 195.612 26.3151 195.891 25.117L190.047 23.758C189.7 25.2474 189.447 26.8473 189.28 28.551L195.251 29.1365ZM195.891 25.1159C196.247 23.5807 196.723 22.3152 197.288 21.2847L192.025 18.4028C191.152 19.9973 190.503 21.7943 190.046 23.7591L195.891 25.1159ZM197.261 21.3322C197.848 20.3044 198.527 19.5004 199.282 18.8783L195.468 14.2467C194.098 15.3746 192.964 16.7581 192.052 18.3553L197.261 21.3322ZM199.19 18.951C199.692 18.5697 200.262 18.2707 200.921 18.0583L199.079 12.348C197.8 12.7605 196.621 13.3678 195.56 14.174L199.19 18.951ZM200.895 18.0666C201.562 17.858 202.364 17.7344 203.328 17.7344V11.7344C201.854 11.7344 200.438 11.9233 199.105 12.3397L200.895 18.0666ZM203.328 17.7344C204.343 17.7344 205.172 17.8706 205.848 18.0961L207.746 12.4039C206.359 11.9419 204.876 11.7344 203.328 11.7344V17.7344ZM205.873 18.1043C206.646 18.3543 207.304 18.6944 207.871 19.1138L211.442 14.2925C210.321 13.4618 209.073 12.8332 207.72 12.3957L205.873 18.1043ZM207.791 19.0525C208.521 19.6322 209.208 20.4253 209.828 21.4922L215.015 18.4765C214.073 16.8559 212.917 15.4615 211.522 14.3538L207.791 19.0525ZM209.844 21.5188C210.471 22.5718 210.999 23.8197 211.406 25.2873L217.187 23.6814C216.658 21.774 215.935 20.0219 215 18.4499L209.844 21.5188ZM211.407 25.2908C211.729 26.4439 211.966 27.7384 212.108 29.1833L218.079 28.5979C217.909 26.8553 217.615 25.2123 217.186 23.678L211.407 25.2908ZM212.115 29.2481C212.287 30.6797 212.375 32.2158 212.375 33.8594H218.375C218.375 32.003 218.276 30.2266 218.072 28.5332L212.115 29.2481ZM58.2969 101.484V104.484H61.2969V101.484H58.2969ZM58.2969 90.75H61.2969V87.75H58.2969V90.75ZM3.26562 90.75V87.75H0.265625V90.75H3.26562ZM3.26562 101.484H0.265625V104.484H3.26562V101.484ZM24.0312 101.484H27.0312V98.4844H24.0312V101.484ZM24.0312 159H21.0312V162H24.0312V159ZM37.25 159V162H40.25V159H37.25ZM37.25 101.484V98.4844H34.25V101.484H37.25ZM61.2969 101.484V90.75H55.2969V101.484H61.2969ZM58.2969 87.75H3.26562V93.75H58.2969V87.75ZM0.265625 90.75V101.484H6.26562V90.75H0.265625ZM3.26562 104.484H24.0312V98.4844H3.26562V104.484ZM21.0312 101.484V159H27.0312V101.484H21.0312ZM24.0312 162H37.25V156H24.0312V162ZM40.25 159V101.484H34.25V159H40.25ZM37.25 104.484H58.2969V98.4844H37.25V104.484ZM107.797 129.094V132.094H110.797V129.094H107.797ZM107.797 118.688H110.797V115.688H107.797V118.688ZM79.7656 118.688H76.7656V121.688H79.7656V118.688ZM79.7656 101.484V98.4844H76.7656V101.484H79.7656ZM112.391 101.484V104.484H115.391V101.484H112.391ZM112.391 90.75H115.391V87.75H112.391V90.75ZM66.5469 90.75V87.75H63.5469V90.75H66.5469ZM66.5469 159H63.5469V162H66.5469V159ZM112.531 159V162H115.531V159H112.531ZM112.531 148.359H115.531V145.359H112.531V148.359ZM79.7656 148.359H76.7656V151.359H79.7656V148.359ZM79.7656 129.094V126.094H76.7656V129.094H79.7656ZM110.797 129.094V118.688H104.797V129.094H110.797ZM107.797 115.688H79.7656V121.688H107.797V115.688ZM82.7656 118.688V101.484H76.7656V118.688H82.7656ZM79.7656 104.484H112.391V98.4844H79.7656V104.484ZM115.391 101.484V90.75H109.391V101.484H115.391ZM112.391 87.75H66.5469V93.75H112.391V87.75ZM63.5469 90.75V159H69.5469V90.75H63.5469ZM66.5469 162H112.531V156H66.5469V162ZM115.531 159V148.359H109.531V159H115.531ZM112.531 145.359H79.7656V151.359H112.531V145.359ZM82.7656 148.359V129.094H76.7656V148.359H82.7656ZM79.7656 132.094H107.797V126.094H79.7656V132.094ZM170.844 137.625L173.838 137.816L174.041 134.625H170.844V137.625ZM157.672 137.625V134.625H154.848L154.677 137.444L157.672 137.625ZM142.672 148.828L141.802 151.699L141.853 151.715L141.904 151.728L142.672 148.828ZM139.859 147.422L141.645 145.011L141.629 144.999L141.612 144.987L139.859 147.422ZM137.75 145.312L135.297 147.039L135.318 147.069L135.339 147.098L137.75 145.312ZM136.203 142.406L133.41 143.502L133.414 143.511L133.418 143.52L136.203 142.406ZM134.797 136.828L131.822 137.216L131.825 137.24L131.829 137.265L134.797 136.828ZM134.656 114.656L137.639 114.982L137.639 114.976L134.656 114.656ZM135.547 109.875L132.664 109.044L132.662 109.052L132.66 109.059L135.547 109.875ZM137.656 105.047L135.135 103.422L135.13 103.429L135.125 103.436L137.656 105.047ZM140.938 101.812L139.426 99.2212L139.422 99.2235L140.938 101.812ZM143.375 100.828L142.671 97.9119L142.659 97.9147L142.647 97.9177L143.375 100.828ZM151.25 101.297L150.169 104.095L150.207 104.11L150.245 104.124L151.25 101.297ZM154.766 103.547L157.019 101.567L156.987 101.53L156.954 101.495L154.766 103.547ZM156.828 107.391L153.96 108.269L153.968 108.295L153.976 108.322L156.828 107.391ZM157.766 112.734L154.771 112.919L154.945 115.734H157.766V112.734ZM170.891 112.734V115.734H174.165L173.879 112.472L170.891 112.734ZM156.266 91.3594L155.236 94.177L155.245 94.1805L156.266 91.3594ZM139.156 90.75L139.98 93.6346L139.994 93.6308L140.007 93.6268L139.156 90.75ZM133.109 93.4688L131.485 90.9466L131.452 90.9679L131.419 90.9901L133.109 93.4688ZM123.641 105.562L126.415 106.705L126.428 106.673L126.44 106.642L123.641 105.562ZM121.672 112.5L124.626 113.023L124.627 113.017L121.672 112.5ZM121.719 137.859L118.765 138.387L118.769 138.404L118.772 138.421L121.719 137.859ZM123.828 145.078L121.057 146.226L121.064 146.243L121.071 146.26L123.828 145.078ZM127.25 151.078L124.84 152.865L124.85 152.878L124.86 152.891L127.25 151.078ZM131.938 155.719L130.165 158.139L130.174 158.146L130.182 158.152L131.938 155.719ZM138.359 158.906L137.456 161.767L137.478 161.774L137.501 161.781L138.359 158.906ZM155.938 158.438L156.931 161.268L156.945 161.263L156.958 161.259L155.938 158.438ZM168.594 146.906L165.874 145.639L165.868 145.652L165.863 145.665L168.594 146.906ZM170.844 134.625H157.672V140.625H170.844V134.625ZM154.677 137.444C154.565 139.291 154.264 140.739 153.839 141.849L159.442 143.995C160.142 142.167 160.528 140.084 160.666 137.806L154.677 137.444ZM153.839 141.849C153.407 142.977 152.863 143.789 152.257 144.375L156.43 148.687C157.762 147.398 158.749 145.805 159.442 143.995L153.839 141.849ZM152.257 144.375C151.645 144.969 150.884 145.428 149.919 145.735L151.738 151.453C153.522 150.885 155.105 149.969 156.43 148.687L152.257 144.375ZM149.919 145.735C148.888 146.063 147.655 146.25 146.188 146.25V152.25C148.158 152.25 150.019 152 151.738 151.453L149.919 145.735ZM146.188 146.25C145.124 146.25 144.214 146.133 143.44 145.928L141.904 151.728C143.255 152.086 144.689 152.25 146.188 152.25V146.25ZM143.542 145.957C142.831 145.742 142.205 145.426 141.645 145.011L138.074 149.833C139.201 150.668 140.45 151.29 141.802 151.699L143.542 145.957ZM141.612 144.987C141.104 144.621 140.618 144.144 140.161 143.527L135.339 147.098C136.132 148.168 137.052 149.097 138.106 149.856L141.612 144.987ZM140.203 143.586C139.761 142.957 139.351 142.199 138.989 141.292L133.418 143.52C133.93 144.801 134.551 145.98 135.297 147.039L140.203 143.586ZM138.996 141.311C138.472 139.975 138.052 138.345 137.765 136.392L131.829 137.265C132.166 139.561 132.684 141.65 133.41 143.502L138.996 141.311ZM137.772 136.44C137.511 134.44 137.375 132.135 137.375 129.516H131.375C131.375 132.334 131.521 134.904 131.822 137.216L137.772 136.44ZM137.375 129.516V120.234H131.375V129.516H137.375ZM137.375 120.234C137.375 118.327 137.464 116.577 137.639 114.982L131.674 114.331C131.473 116.173 131.375 118.142 131.375 120.234H137.375ZM137.639 114.976C137.812 113.365 138.081 111.94 138.434 110.691L132.66 109.059C132.201 110.685 131.876 112.448 131.673 114.337L137.639 114.976ZM138.43 110.706C138.895 109.09 139.491 107.752 140.187 106.658L135.125 103.436C134.072 105.091 133.261 106.973 132.664 109.044L138.43 110.706ZM140.178 106.672C140.862 105.611 141.627 104.885 142.453 104.402L139.422 99.2235C137.685 100.24 136.263 101.67 135.135 103.422L140.178 106.672ZM142.449 104.404C142.945 104.115 143.492 103.891 144.103 103.739L142.647 97.9177C141.508 98.2025 140.43 98.6353 139.426 99.2212L142.449 104.404ZM144.079 103.744C144.732 103.587 145.462 103.5 146.281 103.5V97.5C145.038 97.5 143.831 97.632 142.671 97.9119L144.079 103.744ZM146.281 103.5C147.959 103.5 149.228 103.732 150.169 104.095L152.331 98.4985C150.522 97.7994 148.478 97.5 146.281 97.5V103.5ZM150.245 104.124C151.241 104.478 151.995 104.978 152.577 105.599L156.954 101.495C155.661 100.116 154.071 99.1159 152.255 98.4702L150.245 104.124ZM152.512 105.527C153.095 106.19 153.595 107.077 153.96 108.269L159.697 106.512C159.124 104.642 158.249 102.966 157.019 101.567L152.512 105.527ZM153.976 108.322C154.38 109.557 154.658 111.078 154.771 112.919L160.76 112.55C160.623 110.328 160.276 108.286 159.68 106.459L153.976 108.322ZM157.766 115.734H170.891V109.734H157.766V115.734ZM173.879 112.472C173.544 108.65 172.733 105.139 171.409 101.969L165.872 104.281C166.924 106.798 167.612 109.693 167.902 112.997L173.879 112.472ZM171.409 101.969C170.075 98.774 168.223 96.0137 165.837 93.7362L161.694 98.0763C163.433 99.7363 164.831 101.789 165.872 104.281L171.409 101.969ZM165.837 93.7362C163.445 91.4533 160.578 89.7288 157.286 88.5382L155.245 94.1805C157.829 95.115 159.961 96.4217 161.694 98.0763L165.837 93.7362ZM157.296 88.5418C153.998 87.3361 150.31 86.7656 146.281 86.7656V92.7656C149.752 92.7656 152.721 93.2577 155.236 94.177L157.296 88.5418ZM146.281 86.7656C143.489 86.7656 140.825 87.128 138.305 87.8732L140.007 93.6268C141.925 93.0595 144.011 92.7656 146.281 92.7656V86.7656ZM138.332 87.8654C135.872 88.5683 133.585 89.5938 131.485 90.9466L134.734 95.9909C136.321 94.9687 138.065 94.1817 139.98 93.6346L138.332 87.8654ZM131.419 90.9901C129.1 92.5713 127.039 94.4967 125.236 96.7509L129.921 100.499C131.367 98.6908 132.993 97.1787 134.799 95.9474L131.419 90.9901ZM125.236 96.7509C123.406 99.0381 121.944 101.622 120.841 104.483L126.44 106.642C127.337 104.315 128.5 102.274 129.921 100.499L125.236 96.7509ZM120.867 104.42C119.901 106.766 119.188 109.291 118.717 111.983L124.627 113.017C125.031 110.709 125.631 108.609 126.415 106.705L120.867 104.42ZM118.718 111.977C118.247 114.634 118.016 117.419 118.016 120.328H124.016C124.016 117.737 124.222 115.304 124.626 113.023L118.718 111.977ZM118.016 120.328V129.516H124.016V120.328H118.016ZM118.016 129.516C118.016 132.612 118.263 135.571 118.765 138.387L124.672 137.332C124.237 134.898 124.016 132.294 124.016 129.516H118.016ZM118.772 138.421C119.305 141.222 120.063 143.827 121.057 146.226L126.6 143.93C125.781 141.954 125.132 139.747 124.666 137.298L118.772 138.421ZM121.071 146.26C122.095 148.65 123.35 150.855 124.84 152.865L129.66 149.291C128.463 147.676 127.436 145.881 126.586 143.896L121.071 146.26ZM124.86 152.891C126.402 154.924 128.17 156.678 130.165 158.139L133.71 153.298C132.205 152.197 130.848 150.858 129.64 149.265L124.86 152.891ZM130.182 158.152C132.363 159.725 134.794 160.926 137.456 161.767L139.263 156.046C137.174 155.386 135.324 154.463 133.693 153.286L130.182 158.152ZM137.501 161.781C140.217 162.592 143.119 162.984 146.188 162.984V156.984C143.631 156.984 141.315 156.658 139.218 156.032L137.501 161.781ZM146.188 162.984C150.04 162.984 153.632 162.426 156.931 161.268L154.944 155.607C152.368 156.511 149.46 156.984 146.188 156.984V162.984ZM156.958 161.259C160.233 160.074 163.113 158.379 165.553 156.154L161.51 151.721C159.7 153.371 157.517 154.676 154.917 155.616L156.958 161.259ZM165.553 156.154C167.993 153.929 169.915 151.249 171.325 148.148L165.863 145.665C164.772 148.064 163.32 150.071 161.51 151.721L165.553 156.154ZM171.313 148.173C172.772 145.042 173.598 141.576 173.838 137.816L167.85 137.434C167.652 140.549 166.978 143.271 165.874 145.639L171.313 148.173ZM226.156 159V162H229.156V159H226.156ZM226.156 90.75H229.156V87.75H226.156V90.75ZM213.125 90.75V87.75H210.125V90.75H213.125ZM213.125 118.734V121.734H216.125V118.734H213.125ZM193.812 118.734H190.812V121.734H193.812V118.734ZM193.812 90.75H196.812V87.75H193.812V90.75ZM180.734 90.75V87.75H177.734V90.75H180.734ZM180.734 159H177.734V162H180.734V159ZM193.812 159V162H196.812V159H193.812ZM193.812 129.422V126.422H190.812V129.422H193.812ZM213.125 129.422H216.125V126.422H213.125V129.422ZM213.125 159H210.125V162H213.125V159ZM229.156 159V90.75H223.156V159H229.156ZM226.156 87.75H213.125V93.75H226.156V87.75ZM210.125 90.75V118.734H216.125V90.75H210.125ZM213.125 115.734H193.812V121.734H213.125V115.734ZM196.812 118.734V90.75H190.812V118.734H196.812ZM193.812 87.75H180.734V93.75H193.812V87.75ZM177.734 90.75V159H183.734V90.75H177.734ZM180.734 162H193.812V156H180.734V162ZM196.812 159V129.422H190.812V159H196.812ZM193.812 132.422H213.125V126.422H193.812V132.422ZM210.125 129.422V159H216.125V129.422H210.125ZM213.125 162H226.156V156H213.125V162Z" fill="white"/>
</svg>
