<svg width="40" height="80" viewBox="0 0 40 80" fill="none" xmlns="http://www.w3.org/2000/svg">
<path d="M27.3906 63.7891L27.6558 62.3L25.8781 61.9835V63.7891H27.3906ZM27.3906 68.5H25.8781V69.767L27.1255 69.9891L27.3906 68.5ZM37 70.2109H38.5125V68.9439L37.2651 68.7219L37 70.2109ZM37 74.4062L36.7349 75.8953L38.5125 76.2118V74.4062H37ZM27.3906 72.6953L27.6558 71.2062L25.8781 70.8897V72.6953H27.3906ZM27.3906 78.0391V79.5516H28.9031V78.0391H27.3906ZM23.4297 78.0391H21.9172V79.5516H23.4297V78.0391ZM23.4297 71.9922H24.9422V70.7268L23.6966 70.5034L23.4297 71.9922ZM16.6328 70.7734L16.8998 69.2847L15.1203 68.9656V70.7734H16.6328ZM16.6328 76.2812V77.7937H18.1453V76.2812H16.6328ZM12.625 76.2812H11.1125V77.7937H12.625V76.2812ZM12.625 70.0703H14.1375V68.8061L12.8934 68.5818L12.625 70.0703ZM2.875 68.3125H1.3625V69.5767L2.60664 69.801L2.875 68.3125ZM2.875 64.1406L3.13989 62.6515L1.3625 62.3353V64.1406H2.875ZM12.625 65.875L12.3601 67.3641L14.1375 67.6803V65.875H12.625ZM12.625 61.1641H14.1375V59.8969L12.8899 59.6749L12.625 61.1641ZM2.875 59.4297H1.3625V60.6969L2.61011 60.9188L2.875 59.4297ZM2.875 55.2109L3.14336 53.7224L1.3625 53.4014V55.2109H2.875ZM12.625 56.9688L12.3566 58.4573L14.1375 58.7783V56.9688H12.625ZM12.625 51.8828V50.3703H11.1125V51.8828H12.625ZM16.6328 51.8828H18.1453V50.3703H16.6328V51.8828ZM16.6328 57.6719H15.1203V58.9373L16.3659 59.1606L16.6328 57.6719ZM23.4297 58.8906L23.1627 60.3794L24.9422 60.6985V58.8906H23.4297ZM23.4297 53.6641V52.1516H21.9172V53.6641H23.4297ZM27.3906 53.6641H28.9031V52.1516H27.3906V53.6641ZM27.3906 59.5938H25.8781V60.8607L27.1255 61.0828L27.3906 59.5938ZM37 61.3047H38.5125V60.0377L37.2651 59.8156L37 61.3047ZM37 65.5L36.7349 66.9891L38.5125 67.3056V65.5H37ZM23.4297 67.7969L23.1677 69.2865L24.9422 69.5986V67.7969H23.4297ZM23.4297 63.0859H24.9422V61.8162L23.6917 61.5963L23.4297 63.0859ZM16.6328 61.8906L16.8948 60.401L15.1203 60.0889V61.8906H16.6328ZM16.6328 66.6016H15.1203V67.8713L16.3708 68.0912L16.6328 66.6016ZM25.8781 63.7891V68.5H28.9031V63.7891H25.8781ZM27.1255 69.9891L36.7349 71.7L37.2651 68.7219L27.6558 67.0109L27.1255 69.9891ZM35.4875 70.2109V74.4062H38.5125V70.2109H35.4875ZM37.2651 72.9172L27.6558 71.2062L27.1255 74.1844L36.7349 75.8953L37.2651 72.9172ZM25.8781 72.6953V78.0391H28.9031V72.6953H25.8781ZM27.3906 76.5266H23.4297V79.5516H27.3906V76.5266ZM24.9422 78.0391V71.9922H21.9172V78.0391H24.9422ZM23.6966 70.5034L16.8998 69.2847L16.3659 72.2622L23.1627 73.4809L23.6966 70.5034ZM15.1203 70.7734V76.2812H18.1453V70.7734H15.1203ZM16.6328 74.7688H12.625V77.7937H16.6328V74.7688ZM14.1375 76.2812V70.0703H11.1125V76.2812H14.1375ZM12.8934 68.5818L3.14336 66.824L2.60664 69.801L12.3566 71.5588L12.8934 68.5818ZM4.3875 68.3125L4.3875 64.1406H1.3625L1.3625 68.3125H4.3875ZM2.61011 65.6297L12.3601 67.3641L12.8899 64.3859L3.13989 62.6515L2.61011 65.6297ZM14.1375 65.875V61.1641H11.1125V65.875H14.1375ZM12.8899 59.6749L3.13989 57.9406L2.61011 60.9188L12.3601 62.6532L12.8899 59.6749ZM4.3875 59.4297V55.2109H1.3625V59.4297H4.3875ZM2.60664 56.6994L12.3566 58.4573L12.8934 55.4802L3.14336 53.7224L2.60664 56.6994ZM14.1375 56.9688V51.8828H11.1125V56.9688H14.1375ZM12.625 53.3953H16.6328V50.3703H12.625V53.3953ZM15.1203 51.8828V57.6719H18.1453V51.8828H15.1203ZM16.3659 59.1606L23.1627 60.3794L23.6966 57.4019L16.8998 56.1831L16.3659 59.1606ZM24.9422 58.8906V53.6641H21.9172V58.8906H24.9422ZM23.4297 55.1766H27.3906V52.1516H23.4297V55.1766ZM25.8781 53.6641V59.5938H28.9031V53.6641H25.8781ZM27.1255 61.0828L36.7349 62.7938L37.2651 59.8156L27.6558 58.1047L27.1255 61.0828ZM35.4875 61.3047V65.5H38.5125V61.3047H35.4875ZM37.2651 64.0109L27.6558 62.3L27.1255 65.2781L36.7349 66.9891L37.2651 64.0109ZM24.9422 67.7969V63.0859H21.9172V67.7969H24.9422ZM23.6917 61.5963L16.8948 60.401L16.3708 63.3803L23.1677 64.5756L23.6917 61.5963ZM15.1203 61.8906V66.6016H18.1453V61.8906H15.1203ZM16.3708 68.0912L23.1677 69.2865L23.6917 66.3072L16.8948 65.1119L16.3708 68.0912ZM29.8516 25.4219L29.4096 26.8684L29.4182 26.871L29.8516 25.4219ZM34.0703 27.6016L35.048 26.4475L35.0402 26.4409L34.0703 27.6016ZM34.0703 43.8672L35.0402 45.0278L35.0488 45.0206L35.0573 45.0133L34.0703 43.8672ZM29.8516 46.0938L30.2935 47.5402L30.3016 47.5378L30.3096 47.5352L29.8516 46.0938ZM10.0469 46.0938L10.4926 44.6484L10.4889 44.6473L10.0469 46.0938ZM5.82813 43.8906L4.84901 45.0434L4.85042 45.0446L5.82813 43.8906ZM3.25 40.3984L1.85572 40.9847L1.85814 40.9904L3.25 40.3984ZM5.82813 27.6484L6.79797 28.8091L6.80657 28.8019L6.81507 28.7946L5.82813 27.6484ZM10.0469 25.4219L10.4889 26.8684L10.4926 26.8672L10.0469 25.4219ZM21.2031 40.3047V41.8172H24.2157L22.4161 39.4012L21.2031 40.3047ZM14.4297 31.2109L15.6427 30.3074L15.1775 29.6829L14.3988 29.6988L14.4297 31.2109ZM18.8594 31.2109V29.6984H15.8531L17.6449 32.1124L18.8594 31.2109ZM25.6094 40.3047L24.3949 41.2062L24.8682 41.8438L25.6619 41.8163L25.6094 40.3047ZM30.625 39.0625L31.4804 40.3099L31.4887 40.3041L30.625 39.0625ZM30.4609 32.3359L29.6533 33.6147L29.6593 33.6186L29.6654 33.6223L30.4609 32.3359ZM24.0156 26.1609C26.1045 26.1609 27.8957 26.4058 29.4096 26.8684L30.2935 23.9754C28.4324 23.4067 26.333 23.1359 24.0156 23.1359V26.1609ZM29.4182 26.871C30.9273 27.3223 32.1422 27.9615 33.1005 28.7622L35.0402 26.4409C33.7172 25.3354 32.1196 24.5215 30.2849 23.9728L29.4182 26.871ZM33.0926 28.7556C34.0338 29.553 34.7437 30.5217 35.2307 31.68L38.0193 30.5075C37.35 28.9158 36.3568 27.5564 35.048 26.4475L33.0926 28.7556ZM35.2307 31.68C35.7198 32.8433 35.9797 34.1866 35.9797 35.7344H39.0047C39.0047 33.8447 38.6864 32.0942 38.0193 30.5075L35.2307 31.68ZM35.9797 35.7344C35.9797 37.2645 35.7205 38.6004 35.2307 39.7653L38.0193 40.9378C38.6857 39.3527 39.0047 37.6105 39.0047 35.7344H35.9797ZM35.2307 39.7653C34.7428 40.9258 34.0303 41.9057 33.0834 42.7211L35.0573 45.0133C36.3604 43.8912 37.3509 42.5274 38.0193 40.9378L35.2307 39.7653ZM33.1005 42.7066C32.1352 43.5132 30.9113 44.17 29.3935 44.6523L30.3096 47.5352C32.1355 46.955 33.7242 46.1274 35.0402 45.0278L33.1005 42.7066ZM29.4096 44.6473C27.8957 45.1098 26.1045 45.3547 24.0156 45.3547V48.3797C26.333 48.3797 28.4324 48.1089 30.2935 47.5402L29.4096 44.6473ZM24.0156 45.3547H15.8594V48.3797H24.0156V45.3547ZM15.8594 45.3547C13.7701 45.3547 11.9883 45.1097 10.4926 44.6484L9.60112 47.5391C11.4492 48.109 13.5424 48.3797 15.8594 48.3797V45.3547ZM10.4889 44.6473C8.96 44.1801 7.74631 43.5334 6.80583 42.7366L4.85042 45.0446C6.15994 46.1541 7.75875 46.9761 9.60489 47.5402L10.4889 44.6473ZM6.80723 42.7378C5.84351 41.9193 5.12666 40.9464 4.64186 39.8065L1.85814 40.9904C2.52959 42.5692 3.53149 43.9244 4.84902 45.0434L6.80723 42.7378ZM4.64427 39.8122C4.15447 38.6473 3.89531 37.3114 3.89531 35.7812H0.870313C0.870313 37.6573 1.18928 39.3996 1.85573 40.9847L4.64427 39.8122ZM3.89531 35.7812C3.89531 34.2334 4.15516 32.8902 4.64427 31.7269L1.85573 30.5544C1.18859 32.1411 0.870313 33.8916 0.870313 35.7812H3.89531ZM4.64427 31.7269C5.12914 30.5737 5.84331 29.6068 6.79797 28.8091L4.85828 26.4878C3.53169 27.5963 2.52711 28.9576 1.85573 30.5544L4.64427 31.7269ZM6.81507 28.7946C7.75414 27.9859 8.96465 27.3341 10.4889 26.8684L9.60489 23.9754C7.7541 24.5409 6.15211 25.3735 4.84118 26.5023L6.81507 28.7946ZM10.4926 26.8672C11.9883 26.4059 13.7701 26.1609 15.8594 26.1609V23.1359C13.5424 23.1359 11.4492 23.4066 9.60112 23.9766L10.4926 26.8672ZM15.8594 26.1609H24.0156V23.1359H15.8594V26.1609ZM22.4161 39.4012L15.6427 30.3074L13.2167 32.1144L19.9901 41.2082L22.4161 39.4012ZM14.3988 29.6988C11.9951 29.7478 9.94133 30.1607 8.4732 31.1532L10.1674 33.6593C10.918 33.1518 12.2706 32.7678 14.4605 32.7231L14.3988 29.6988ZM8.4732 31.1532C6.89246 32.2219 6.14375 33.8496 6.14375 35.7812H9.16875C9.16875 34.7129 9.52942 34.0906 10.1674 33.6593L8.4732 31.1532ZM6.14375 35.7812C6.14375 37.7577 6.94815 39.3972 8.59874 40.4536L10.2294 37.9058C9.53623 37.4621 9.16875 36.8361 9.16875 35.7812H6.14375ZM8.59874 40.4536C10.1358 41.4374 12.2919 41.8172 14.8281 41.8172V38.7922C12.4893 38.7922 11.036 38.422 10.2294 37.9058L8.59874 40.4536ZM14.8281 41.8172H21.2031V38.7922H14.8281V41.8172ZM17.6449 32.1124L24.3949 41.2062L26.8239 39.4032L20.0739 30.3095L17.6449 32.1124ZM25.6619 41.8163C28.0213 41.7344 30.0363 41.3001 31.4804 40.3099L29.7696 37.8151C29.0262 38.3249 27.6975 38.7188 25.5569 38.7931L25.6619 41.8163ZM31.4887 40.3041C33.0263 39.2345 33.7547 37.63 33.7547 35.7344H30.7297C30.7297 36.7763 30.38 37.3905 29.7613 37.8209L31.4887 40.3041ZM33.7547 35.7344C33.7547 33.7398 32.939 32.09 31.2565 31.0495L29.6654 33.6223C30.3579 34.0506 30.7297 34.6665 30.7297 35.7344H33.7547ZM31.2686 31.0571C29.7191 30.0785 27.5521 29.6984 25 29.6984V32.7234C27.3542 32.7234 28.8278 33.0934 29.6533 33.6147L31.2686 31.0571ZM25 29.6984H18.8594V32.7234H25V29.6984ZM37 2.07812H38.5125V0.565628H37V2.07812ZM37 8.66406V10.1766H38.5125V8.66406H37ZM10.8203 8.66406V7.15157H8.67093L9.39663 9.17473L10.8203 8.66406ZM13.9141 17.2891V18.8016H16.0634L15.3377 16.7784L13.9141 17.2891ZM8.24219 17.2891L6.81964 17.8029L7.18036 18.8016H8.24219V17.2891ZM2.875 2.42969H1.3625V2.69447L1.45245 2.94351L2.875 2.42969ZM2.875 2.07812V0.565628H1.3625V2.07812H2.875ZM35.4875 2.07812V8.66406H38.5125V2.07812H35.4875ZM37 7.15157H10.8203V10.1766H37V7.15157ZM9.39663 9.17473L12.4904 17.7997L15.3377 16.7784L12.244 8.1534L9.39663 9.17473ZM13.9141 15.7766H8.24219V18.8016H13.9141V15.7766ZM9.66474 16.7752L4.29755 1.91586L1.45245 2.94351L6.81964 17.8029L9.66474 16.7752ZM4.3875 2.42969V2.07812H1.3625V2.42969H4.3875ZM2.875 3.59062H37V0.565628H2.875V3.59062Z" fill="#ECB02B"/>
</svg>
