<svg width="40" height="87" viewBox="0 0 40 87" fill="none" xmlns="http://www.w3.org/2000/svg">
<path d="M27.3906 70.7891L27.6558 69.3L25.8781 68.9835V70.7891H27.3906ZM27.3906 75.5H25.8781V76.767L27.1255 76.9891L27.3906 75.5ZM37 77.2109H38.5125V75.9439L37.2651 75.7219L37 77.2109ZM37 81.4062L36.7349 82.8953L38.5125 83.2118V81.4062H37ZM27.3906 79.6953L27.6558 78.2062L25.8781 77.8897V79.6953H27.3906ZM27.3906 85.0391V86.5516H28.9031V85.0391H27.3906ZM23.4297 85.0391H21.9172V86.5516H23.4297V85.0391ZM23.4297 78.9922H24.9422V77.7268L23.6966 77.5034L23.4297 78.9922ZM16.6328 77.7734L16.8998 76.2847L15.1203 75.9656V77.7734H16.6328ZM16.6328 83.2812V84.7937H18.1453V83.2812H16.6328ZM12.625 83.2812H11.1125V84.7937H12.625V83.2812ZM12.625 77.0703H14.1375V75.8061L12.8934 75.5818L12.625 77.0703ZM2.875 75.3125H1.3625V76.5767L2.60664 76.801L2.875 75.3125ZM2.875 71.1406L3.13989 69.6515L1.3625 69.3353V71.1406H2.875ZM12.625 72.875L12.3601 74.3641L14.1375 74.6803V72.875H12.625ZM12.625 68.1641H14.1375V66.8969L12.8899 66.6749L12.625 68.1641ZM2.875 66.4297H1.3625V67.6969L2.61011 67.9188L2.875 66.4297ZM2.875 62.2109L3.14336 60.7224L1.3625 60.4014V62.2109H2.875ZM12.625 63.9688L12.3566 65.4573L14.1375 65.7783V63.9688H12.625ZM12.625 58.8828V57.3703H11.1125V58.8828H12.625ZM16.6328 58.8828H18.1453V57.3703H16.6328V58.8828ZM16.6328 64.6719H15.1203V65.9373L16.3659 66.1606L16.6328 64.6719ZM23.4297 65.8906L23.1627 67.3794L24.9422 67.6985V65.8906H23.4297ZM23.4297 60.6641V59.1516H21.9172V60.6641H23.4297ZM27.3906 60.6641H28.9031V59.1516H27.3906V60.6641ZM27.3906 66.5938H25.8781V67.8607L27.1255 68.0828L27.3906 66.5938ZM37 68.3047H38.5125V67.0377L37.2651 66.8156L37 68.3047ZM37 72.5L36.7349 73.9891L38.5125 74.3056V72.5H37ZM23.4297 74.7969L23.1677 76.2865L24.9422 76.5986V74.7969H23.4297ZM23.4297 70.0859H24.9422V68.8162L23.6917 68.5963L23.4297 70.0859ZM16.6328 68.8906L16.8948 67.401L15.1203 67.0889V68.8906H16.6328ZM16.6328 73.6016H15.1203V74.8713L16.3708 75.0912L16.6328 73.6016ZM25.8781 70.7891V75.5H28.9031V70.7891H25.8781ZM27.1255 76.9891L36.7349 78.7L37.2651 75.7219L27.6558 74.0109L27.1255 76.9891ZM35.4875 77.2109V81.4062H38.5125V77.2109H35.4875ZM37.2651 79.9172L27.6558 78.2062L27.1255 81.1844L36.7349 82.8953L37.2651 79.9172ZM25.8781 79.6953V85.0391H28.9031V79.6953H25.8781ZM27.3906 83.5266H23.4297V86.5516H27.3906V83.5266ZM24.9422 85.0391V78.9922H21.9172V85.0391H24.9422ZM23.6966 77.5034L16.8998 76.2847L16.3659 79.2622L23.1627 80.4809L23.6966 77.5034ZM15.1203 77.7734V83.2812H18.1453V77.7734H15.1203ZM16.6328 81.7688H12.625V84.7937H16.6328V81.7688ZM14.1375 83.2812V77.0703H11.1125V83.2812H14.1375ZM12.8934 75.5818L3.14336 73.824L2.60664 76.801L12.3566 78.5588L12.8934 75.5818ZM4.3875 75.3125L4.3875 71.1406H1.3625L1.3625 75.3125H4.3875ZM2.61011 72.6297L12.3601 74.3641L12.8899 71.3859L3.13989 69.6515L2.61011 72.6297ZM14.1375 72.875V68.1641H11.1125V72.875H14.1375ZM12.8899 66.6749L3.13989 64.9406L2.61011 67.9188L12.3601 69.6532L12.8899 66.6749ZM4.3875 66.4297V62.2109H1.3625V66.4297H4.3875ZM2.60664 63.6994L12.3566 65.4573L12.8934 62.4802L3.14336 60.7224L2.60664 63.6994ZM14.1375 63.9688V58.8828H11.1125V63.9688H14.1375ZM12.625 60.3953H16.6328V57.3703H12.625V60.3953ZM15.1203 58.8828V64.6719H18.1453V58.8828H15.1203ZM16.3659 66.1606L23.1627 67.3794L23.6966 64.4019L16.8998 63.1831L16.3659 66.1606ZM24.9422 65.8906V60.6641H21.9172V65.8906H24.9422ZM23.4297 62.1766H27.3906V59.1516H23.4297V62.1766ZM25.8781 60.6641V66.5938H28.9031V60.6641H25.8781ZM27.1255 68.0828L36.7349 69.7938L37.2651 66.8156L27.6558 65.1047L27.1255 68.0828ZM35.4875 68.3047V72.5H38.5125V68.3047H35.4875ZM37.2651 71.0109L27.6558 69.3L27.1255 72.2781L36.7349 73.9891L37.2651 71.0109ZM24.9422 74.7969V70.0859H21.9172V74.7969H24.9422ZM23.6917 68.5963L16.8948 67.401L16.3708 70.3803L23.1677 71.5756L23.6917 68.5963ZM15.1203 68.8906V73.6016H18.1453V68.8906H15.1203ZM16.3708 75.0912L23.1677 76.2865L23.6917 73.3072L16.8948 72.1119L16.3708 75.0912ZM29.8516 32.4219L29.4096 33.8684L29.4182 33.871L29.8516 32.4219ZM34.0703 34.6016L35.048 33.4475L35.0402 33.4409L34.0703 34.6016ZM34.0703 50.8672L35.0402 52.0278L35.0488 52.0206L35.0573 52.0133L34.0703 50.8672ZM29.8516 53.0938L30.2935 54.5402L30.3016 54.5378L30.3096 54.5352L29.8516 53.0938ZM10.0469 53.0938L10.4926 51.6484L10.4889 51.6473L10.0469 53.0938ZM5.82813 50.8906L4.84901 52.0434L4.85042 52.0446L5.82813 50.8906ZM3.25 47.3984L1.85572 47.9847L1.85814 47.9904L3.25 47.3984ZM5.82813 34.6484L6.79797 35.8091L6.80657 35.8019L6.81507 35.7946L5.82813 34.6484ZM10.0469 32.4219L10.4889 33.8684L10.4926 33.8672L10.0469 32.4219ZM21.2031 47.3047V48.8172H24.2157L22.4161 46.4012L21.2031 47.3047ZM14.4297 38.2109L15.6427 37.3074L15.1775 36.6829L14.3988 36.6988L14.4297 38.2109ZM18.8594 38.2109V36.6984H15.8531L17.6449 39.1124L18.8594 38.2109ZM25.6094 47.3047L24.3949 48.2062L24.8682 48.8438L25.6619 48.8163L25.6094 47.3047ZM30.625 46.0625L31.4804 47.3099L31.4887 47.3041L30.625 46.0625ZM30.4609 39.3359L29.6533 40.6147L29.6593 40.6186L29.6654 40.6223L30.4609 39.3359ZM24.0156 33.1609C26.1045 33.1609 27.8957 33.4058 29.4096 33.8684L30.2935 30.9754C28.4324 30.4067 26.333 30.1359 24.0156 30.1359V33.1609ZM29.4182 33.871C30.9273 34.3223 32.1422 34.9615 33.1005 35.7622L35.0402 33.4409C33.7172 32.3354 32.1196 31.5215 30.2849 30.9728L29.4182 33.871ZM33.0926 35.7556C34.0338 36.553 34.7437 37.5217 35.2307 38.68L38.0193 37.5075C37.35 35.9158 36.3568 34.5564 35.048 33.4475L33.0926 35.7556ZM35.2307 38.68C35.7198 39.8433 35.9797 41.1866 35.9797 42.7344H39.0047C39.0047 40.8447 38.6864 39.0942 38.0193 37.5075L35.2307 38.68ZM35.9797 42.7344C35.9797 44.2645 35.7205 45.6004 35.2307 46.7653L38.0193 47.9378C38.6857 46.3527 39.0047 44.6105 39.0047 42.7344H35.9797ZM35.2307 46.7653C34.7428 47.9258 34.0303 48.9057 33.0834 49.7211L35.0573 52.0133C36.3604 50.8912 37.3509 49.5274 38.0193 47.9378L35.2307 46.7653ZM33.1005 49.7066C32.1352 50.5132 30.9113 51.17 29.3935 51.6523L30.3096 54.5352C32.1355 53.955 33.7242 53.1274 35.0402 52.0278L33.1005 49.7066ZM29.4096 51.6473C27.8957 52.1098 26.1045 52.3547 24.0156 52.3547V55.3797C26.333 55.3797 28.4324 55.1089 30.2935 54.5402L29.4096 51.6473ZM24.0156 52.3547H15.8594V55.3797H24.0156V52.3547ZM15.8594 52.3547C13.7701 52.3547 11.9883 52.1097 10.4926 51.6484L9.60112 54.5391C11.4492 55.109 13.5424 55.3797 15.8594 55.3797V52.3547ZM10.4889 51.6473C8.96 51.1801 7.74631 50.5334 6.80583 49.7366L4.85042 52.0446C6.15994 53.1541 7.75875 53.9761 9.60489 54.5402L10.4889 51.6473ZM6.80723 49.7378C5.84351 48.9193 5.12666 47.9464 4.64186 46.8065L1.85814 47.9904C2.52959 49.5692 3.53149 50.9244 4.84902 52.0434L6.80723 49.7378ZM4.64427 46.8122C4.15447 45.6473 3.89531 44.3114 3.89531 42.7812H0.870313C0.870313 44.6573 1.18928 46.3996 1.85573 47.9847L4.64427 46.8122ZM3.89531 42.7812C3.89531 41.2334 4.15516 39.8902 4.64427 38.7269L1.85573 37.5544C1.18859 39.1411 0.870313 40.8916 0.870313 42.7812H3.89531ZM4.64427 38.7269C5.12914 37.5737 5.84331 36.6068 6.79797 35.8091L4.85828 33.4878C3.53169 34.5963 2.52711 35.9576 1.85573 37.5544L4.64427 38.7269ZM6.81507 35.7946C7.75414 34.9859 8.96465 34.3341 10.4889 33.8684L9.60489 30.9754C7.7541 31.5409 6.15211 32.3735 4.84118 33.5023L6.81507 35.7946ZM10.4926 33.8672C11.9883 33.4059 13.7701 33.1609 15.8594 33.1609V30.1359C13.5424 30.1359 11.4492 30.4066 9.60112 30.9766L10.4926 33.8672ZM15.8594 33.1609H24.0156V30.1359H15.8594V33.1609ZM22.4161 46.4012L15.6427 37.3074L13.2167 39.1144L19.9901 48.2082L22.4161 46.4012ZM14.3988 36.6988C11.9951 36.7478 9.94133 37.1607 8.4732 38.1532L10.1674 40.6593C10.918 40.1518 12.2706 39.7678 14.4605 39.7231L14.3988 36.6988ZM8.4732 38.1532C6.89246 39.2219 6.14375 40.8496 6.14375 42.7812H9.16875C9.16875 41.7129 9.52942 41.0906 10.1674 40.6593L8.4732 38.1532ZM6.14375 42.7812C6.14375 44.7577 6.94815 46.3972 8.59874 47.4536L10.2294 44.9058C9.53623 44.4621 9.16875 43.8361 9.16875 42.7812H6.14375ZM8.59874 47.4536C10.1358 48.4374 12.2919 48.8172 14.8281 48.8172V45.7922C12.4893 45.7922 11.036 45.422 10.2294 44.9058L8.59874 47.4536ZM14.8281 48.8172H21.2031V45.7922H14.8281V48.8172ZM17.6449 39.1124L24.3949 48.2062L26.8239 46.4032L20.0739 37.3095L17.6449 39.1124ZM25.6619 48.8163C28.0213 48.7344 30.0363 48.3001 31.4804 47.3099L29.7696 44.8151C29.0262 45.3249 27.6975 45.7188 25.5569 45.7931L25.6619 48.8163ZM31.4887 47.3041C33.0263 46.2345 33.7547 44.63 33.7547 42.7344H30.7297C30.7297 43.7763 30.38 44.3905 29.7613 44.8209L31.4887 47.3041ZM33.7547 42.7344C33.7547 40.7398 32.939 39.09 31.2565 38.0495L29.6654 40.6223C30.3579 41.0506 30.7297 41.6665 30.7297 42.7344H33.7547ZM31.2686 38.0571C29.7191 37.0785 27.5521 36.6984 25 36.6984V39.7234C27.3542 39.7234 28.8278 40.0934 29.6533 40.6147L31.2686 38.0571ZM25 36.6984H18.8594V39.7234H25V36.6984ZM24.3203 6.00781V7.52031H25.8328V6.00781H24.3203ZM24.3203 2.04688V0.534378H22.8078V2.04688H24.3203ZM29.5938 2.04688H31.1063V0.534378H29.5938V2.04688ZM29.5938 6.00781H28.0812V7.52031H29.5938V6.00781ZM37 6.00781H38.5125V4.49532H37V6.00781ZM37 12.5234V14.0359H38.5125V12.5234H37ZM29.5938 12.5234V11.0109H28.0812V12.5234H29.5938ZM29.5938 26.7031L29.6892 28.2126L31.1063 28.123L31.1063 26.7031H29.5938ZM25.5156 26.9609L24.7062 28.2386L25.121 28.5014L25.6111 28.4704L25.5156 26.9609ZM2.875 12.6172H1.3625V13.4494L2.06555 13.8949L2.875 12.6172ZM2.875 6.00781V4.49532H1.3625V6.00781H2.875ZM24.3203 20.5625L23.5041 21.8359L25.8328 23.3285V20.5625H24.3203ZM24.3203 12.5234H25.8328V11.0109H24.3203V12.5234ZM11.6406 12.5234V11.0109H5.86665L10.8991 13.8417L11.6406 12.5234ZM12.7656 13.1562L13.5818 11.8829L13.5451 11.8594L13.5071 11.838L12.7656 13.1562ZM25.8328 6.00781V2.04688H22.8078V6.00781H25.8328ZM24.3203 3.55937H29.5938V0.534378H24.3203V3.55937ZM28.0812 2.04688V6.00781H31.1063V2.04688H28.0812ZM29.5938 7.52031H37V4.49532H29.5938V7.52031ZM35.4875 6.00781V12.5234H38.5125V6.00781H35.4875ZM37 11.0109H29.5938V14.0359H37V11.0109ZM28.0812 12.5234V26.7031H31.1063V12.5234H28.0812ZM29.4983 25.1936L25.4202 25.4515L25.6111 28.4704L29.6892 28.2126L29.4983 25.1936ZM26.3251 25.6833L3.68445 11.3395L2.06555 13.8949L24.7062 28.2386L26.3251 25.6833ZM4.3875 12.6172V6.00781H1.3625V12.6172H4.3875ZM2.875 7.52031H24.3203V4.49532H2.875V7.52031ZM25.8328 20.5625V12.5234H22.8078V20.5625H25.8328ZM24.3203 11.0109H11.6406V14.0359H24.3203V11.0109ZM10.8991 13.8417L12.0241 14.4745L13.5071 11.838L12.3821 11.2052L10.8991 13.8417ZM11.9494 14.4296L23.5041 21.8359L25.1365 19.2891L13.5818 11.8829L11.9494 14.4296Z" fill="#ECB02B"/>
</svg>
