<svg width="250" height="250" viewBox="0 0 250 250" fill="none" xmlns="http://www.w3.org/2000/svg">
<rect width="250" height="250" rx="23" fill="url(#paint0_linear)"/>
<path d="M99.912 120.269C105.483 121.822 109.867 124.653 113.064 128.763C116.261 132.782 117.859 137.896 117.859 144.107C117.859 152.418 114.708 158.812 108.406 163.287C102.195 167.762 93.1077 170 81.143 170H35.385V74.1H78.403C89.363 74.1 97.8113 76.292 103.748 80.676C109.776 85.06 112.79 91.1337 112.79 98.897C112.79 103.92 111.603 108.259 109.228 111.912C106.945 115.565 103.839 118.351 99.912 120.269ZM49.085 85.197V115.885H77.17C84.2027 115.885 89.5913 114.606 93.336 112.049C97.172 109.4 99.09 105.564 99.09 100.541C99.09 95.5177 97.172 91.7273 93.336 89.17C89.5913 86.5213 84.2027 85.197 77.17 85.197H49.085ZM80.595 158.903C88.3583 158.903 94.2037 157.624 98.131 155.067C102.058 152.51 104.022 148.491 104.022 143.011C104.022 132.325 96.213 126.982 80.595 126.982H49.085V158.903H80.595ZM181.953 171.096C172.363 171.096 163.686 168.995 155.923 164.794C148.251 160.501 142.223 154.656 137.839 147.258C133.455 139.769 131.263 131.366 131.263 122.05C131.263 112.734 133.455 104.377 137.839 96.979C142.223 89.4897 148.296 83.6443 156.06 79.443C163.823 75.1503 172.5 73.004 182.09 73.004C189.579 73.004 196.429 74.2827 202.64 76.84C208.85 79.306 214.148 83.005 218.532 87.937L209.627 96.568C202.411 88.9873 193.415 85.197 182.638 85.197C175.514 85.197 169.075 86.7953 163.321 89.992C157.567 93.1887 153.046 97.6183 149.758 103.281C146.561 108.852 144.963 115.109 144.963 122.05C144.963 128.991 146.561 135.293 149.758 140.956C153.046 146.527 157.567 150.911 163.321 154.108C169.075 157.305 175.514 158.903 182.638 158.903C193.324 158.903 202.32 155.067 209.627 147.395L218.532 156.026C214.148 160.958 208.805 164.703 202.503 167.26C196.292 169.817 189.442 171.096 181.953 171.096Z" fill="#654B4B"/>
<defs>
<linearGradient id="paint0_linear" x1="125" y1="544" x2="125" y2="-38" gradientUnits="userSpaceOnUse">
<stop stop-color="#ECD0CF"/>
<stop offset="1" stop-color="#F4EEF0"/>
</linearGradient>
</defs>
</svg>
